<?xml version="1.0" standalone="no"?>
<!DOCTYPE svg PUBLIC "-//W3C//DTD SVG 20010904//EN"
 "http://www.w3.org/TR/2001/REC-SVG-20010904/DTD/svg10.dtd">
<svg version="1.0" xmlns="http://www.w3.org/2000/svg"
 width="1525.000000pt" height="1525.000000pt" viewBox="0 0 1525.000000 1525.000000"
 preserveAspectRatio="xMidYMid meet">
<metadata>
Created by potrace 1.14, written by Peter Selinger 2001-2017
</metadata>
<g transform="translate(0.000000,1525.000000) scale(0.100000,-0.100000)"
fill="#000000" stroke="none">
<path d="M0 7625 l0 -7625 7625 0 7625 0 0 7625 0 7625 -7625 0 -7625 0 0
-7625z m4908 3219 c855 -4 1019 -7 1048 -19 68 -28 64 42 64 -1257 0 -1382 5
-1508 70 -1761 87 -339 262 -566 515 -665 174 -68 254 -94 350 -112 475 -88
992 -27 1351 160 290 151 429 258 589 454 22 27 52 63 66 80 101 121 213 323
250 451 11 39 30 93 42 120 l22 50 3 1060 c3 788 1 1088 -8 1170 -12 107 -12
112 11 169 14 34 36 68 52 80 28 21 28 21 1094 18 1193 -3 1119 2 1153 -74 19
-42 20 -90 19 -2808 0 -2116 -3 -2773 -12 -2800 -15 -43 -79 -89 -124 -90 -18
0 -33 5 -33 10 0 6 -127 11 -357 12 -205 1 -304 5 -233 7 l125 6 -160 5 -160
6 205 1 c122 1 195 -2 180 -7 -15 -5 42 -8 142 -7 93 1 168 5 168 8 0 3 21 3
48 -1 76 -12 116 11 82 48 -21 23 -27 62 -9 62 7 0 8 18 5 53 -3 28 -8 835
-11 1791 -3 957 -7 1741 -10 1744 -3 3 -5 -240 -6 -539 -1 -879 -9 -1583 -18
-1589 -17 -10 -27 -277 -37 -962 -4 -263 -10 -438 -16 -438 -6 0 -8 175 -7
458 2 251 1 635 -2 852 -3 217 -3 471 0 563 5 144 4 170 -9 178 -12 7 -13 10
-2 17 9 6 12 21 8 43 -5 30 -21 1455 -17 1537 0 17 -4 32 -9 32 -6 0 -10 -15
-11 -32 -1 -44 -7 -176 -14 -323 -4 -66 -6 -126 -6 -132 1 -7 1 -19 2 -25 0
-7 -2 -54 -6 -105 -4 -51 -8 -142 -9 -202 -1 -61 -5 -113 -8 -116 -4 -4 -5
-12 -2 -19 6 -17 10 -116 4 -116 -4 0 -11 -194 -10 -297 0 -13 -5 -23 -11 -23
-6 0 -7 -5 -2 -12 14 -22 10 -96 -5 -90 -7 2 -12 -2 -10 -9 2 -8 -2 -13 -8
-12 -6 1 -11 -5 -11 -13 0 -7 4 -14 8 -14 4 0 5 -10 2 -22 -10 -48 -12 -51
-27 -39 -11 9 -15 9 -19 -1 -4 -8 -8 -5 -12 10 -8 24 -21 29 -28 10 -3 -8 -6
-6 -6 5 -1 9 -5 17 -10 17 -5 0 -13 9 -16 21 -4 13 -11 17 -16 12 -13 -13 0
-43 17 -43 8 0 14 -7 14 -15 0 -20 -45 -16 -48 5 -1 8 -4 32 -8 53 -4 25 -2
37 5 37 7 0 9 -5 5 -11 -4 -7 -1 -10 6 -7 26 8 22 28 -4 28 -14 0 -26 5 -26
11 0 5 -4 7 -10 4 -5 -3 -10 -16 -10 -28 0 -18 2 -19 10 -7 6 9 10 10 10 3 0
-6 -5 -15 -10 -18 -7 -4 -6 -14 2 -28 17 -31 18 -47 3 -47 -7 0 -15 9 -18 21
-3 12 -10 18 -16 14 -6 -3 -15 3 -19 14 l-7 21 -18 -21 c-18 -20 -18 -21 2
-14 15 4 21 2 21 -9 0 -8 6 -19 14 -23 18 -11 27 -73 9 -66 -7 3 -13 19 -13
35 0 23 -4 29 -16 24 -8 -3 -22 1 -30 9 -23 22 -47 20 -35 -3 6 -11 6 -24 0
-33 -13 -20 -11 -29 6 -29 8 0 12 6 9 14 -3 8 0 17 6 21 6 4 11 1 9 -6 -3 -28
1 -49 11 -49 6 0 10 8 10 18 1 15 2 15 15 -2 19 -25 19 -37 1 -30 -18 7 -26
-7 -19 -34 4 -17 11 -21 32 -17 15 3 20 2 11 -2 -18 -9 -20 -65 -2 -71 7 -2
12 2 12 9 0 21 11 3 16 -27 5 -29 26 -51 32 -34 6 16 22 11 22 -6 0 -11 5 -14
16 -10 10 4 23 -3 35 -16 l19 -23 -6 26 c-3 16 -1 30 6 34 15 9 38 -24 32 -47
-2 -10 1 -18 7 -18 7 0 9 -5 5 -12 -4 -6 1 -17 11 -24 17 -13 17 -15 1 -32 -9
-11 -14 -26 -10 -36 4 -11 1 -16 -10 -16 -9 0 -16 -5 -16 -10 0 -6 8 -10 18
-8 13 2 16 -3 13 -22 -1 -14 -7 -28 -13 -31 -5 -3 -8 -10 -6 -15 6 -21 -13
-75 -24 -71 -7 2 -18 -5 -25 -17 -11 -19 -12 -19 -13 -2 0 15 -3 16 -15 6 -9
-7 -19 -9 -23 -5 -4 4 -1 10 7 13 11 4 11 6 0 12 -10 7 -10 14 1 37 8 15 16
32 19 37 2 5 -8 0 -22 -10 -16 -11 -27 -29 -27 -44 0 -24 -19 -66 -20 -45 0 6
-7 2 -14 -8 -8 -10 -26 -20 -40 -21 -21 -3 -26 1 -27 18 0 19 -1 19 -10 -3
-11 -27 -5 -56 10 -47 5 3 11 -1 15 -9 7 -18 28 -20 25 -2 -5 42 15 52 25 11
5 -19 11 -24 25 -19 15 4 17 1 14 -19 -4 -21 -2 -24 16 -19 12 3 21 10 21 15
0 5 -4 6 -10 3 -5 -3 -10 -1 -10 5 0 15 22 8 28 -9 2 -7 -5 -15 -17 -18 -12
-3 -21 -10 -21 -17 0 -6 -4 -5 -9 3 -7 11 -13 9 -30 -8 -12 -12 -19 -26 -16
-31 3 -5 1 -11 -4 -14 -5 -4 -12 2 -14 11 -3 10 -4 4 -3 -14 0 -17 4 -32 9
-32 15 -2 47 24 47 39 0 13 -1 13 -10 0 -11 -17 -13 -10 -4 14 7 18 24 22 24
5 0 -22 26 -37 44 -27 13 7 21 6 29 -2 9 -10 8 -12 -3 -8 -11 4 -16 -1 -18
-18 -1 -13 3 -24 8 -24 5 0 7 7 4 15 -5 11 -2 13 10 9 10 -4 15 -13 11 -21 -4
-11 -1 -13 12 -9 14 6 15 5 6 -5 -8 -8 -9 -18 -3 -30 7 -12 6 -20 -2 -25 -7
-4 -8 -3 -4 4 4 8 0 12 -11 12 -11 0 -25 6 -33 13 -8 6 -2 -3 14 -20 17 -18
25 -33 18 -33 -21 0 -31 -34 -15 -49 13 -12 14 -11 8 7 -5 17 -3 21 9 16 22
-9 -2 -57 -25 -51 -10 3 -20 -2 -23 -10 -4 -11 -2 -13 9 -9 11 4 15 -1 15 -17
0 -18 -2 -19 -10 -7 -6 10 -10 11 -10 3 0 -7 -5 -13 -11 -13 -8 0 -10 14 -6
40 3 22 1 42 -4 46 -5 3 -7 -1 -4 -8 2 -7 -2 -21 -9 -31 -12 -15 -18 -16 -35
-7 -16 8 -21 8 -22 -2 0 -10 -2 -10 -6 0 -2 6 -9 12 -15 12 -7 0 -6 -5 1 -14
7 -8 21 -12 32 -9 14 4 18 1 13 -10 -7 -20 16 -34 27 -16 6 10 9 11 9 2 0 -7
7 -13 15 -13 12 0 12 -3 -2 -20 -13 -14 -19 -17 -23 -8 -9 22 -28 18 -34 -7
-7 -29 -18 -32 -36 -10 -7 8 -8 15 -3 15 8 0 9 15 4 50 -1 4 -17 4 -36 2 -27
-3 -35 -1 -35 12 0 14 4 15 20 6 15 -8 18 -8 14 3 -3 8 2 21 10 30 15 14 12
27 -6 27 -5 0 -7 -4 -4 -9 11 -17 -27 -21 -50 -6 -22 14 -24 14 -24 0 0 -15
-2 -15 -16 0 -12 11 -20 13 -27 6 -7 -7 -14 -5 -23 7 -13 16 -13 16 -14 0 0
-13 -8 -18 -26 -18 -17 0 -23 4 -18 13 5 7 0 6 -11 -3 -15 -12 -17 -12 -10 -1
6 11 3 13 -13 9 -12 -3 -23 -1 -25 6 -3 8 -9 7 -21 -3 -27 -23 -29 -6 -1 20
28 27 35 51 7 26 -12 -11 -22 -13 -34 -6 -14 8 -16 7 -12 -6 3 -8 1 -15 -6
-15 -21 0 -5 35 18 38 12 2 22 8 22 13 0 6 -6 7 -12 3 -10 -6 -10 -5 -1 8 7 8
10 17 7 20 -2 3 2 8 11 11 11 5 15 0 15 -18 0 -15 6 -25 14 -25 9 0 12 -7 9
-19 -4 -15 0 -18 21 -14 21 4 24 8 15 24 -5 10 -13 18 -17 18 -26 -4 -31 2
-22 27 13 33 13 34 -7 35 -11 0 -13 3 -5 6 6 2 12 12 13 21 0 20 18 -20 23
-52 2 -12 6 -20 9 -18 4 1 15 2 25 3 13 0 12 2 -5 9 -26 11 -28 19 -10 45 13
17 14 17 29 -4 10 -14 18 -18 23 -12 3 6 10 9 14 6 5 -2 11 8 14 23 6 30 35
40 49 18 5 -6 5 4 1 23 l-6 34 22 -22 c23 -23 51 -16 36 9 -6 9 -10 9 -16 -1
-6 -10 -9 -5 -9 15 0 24 -2 27 -15 16 -12 -10 -16 -9 -21 4 -4 9 -4 20 0 23 3
4 6 1 6 -6 0 -7 5 -9 10 -6 6 3 10 15 10 25 0 14 -5 18 -17 13 -10 -4 -14 -2
-9 5 10 17 -11 24 -34 12 -16 -9 -25 -8 -38 2 -16 12 -16 11 -2 -7 8 -11 16
-22 17 -24 2 -2 12 4 23 14 20 18 20 17 20 -11 0 -16 -4 -24 -8 -18 -4 6 -21
10 -39 9 -24 -1 -33 3 -37 18 -3 11 -9 16 -16 12 -9 -6 -9 -9 0 -15 6 -4 11
-11 10 -16 -2 -10 32 -23 43 -17 4 2 7 -1 7 -7 0 -6 -6 -10 -12 -9 -28 3 -36
-2 -42 -26 -7 -27 -26 -35 -26 -10 0 9 -6 12 -15 9 -8 -4 -12 -10 -9 -15 3 -5
-2 -6 -10 -3 -9 3 -16 10 -16 14 0 4 -9 10 -21 13 -14 4 -18 10 -13 18 6 10 9
10 12 0 4 -11 6 -11 13 0 6 10 9 11 9 2 0 -7 5 -13 10 -13 6 0 4 13 -5 30 -18
34 -45 40 -45 10 0 -11 -5 -20 -10 -20 -6 0 -10 12 -9 28 0 15 -3 37 -6 50 -6
19 -3 24 14 29 21 5 30 23 11 23 -5 0 -10 4 -10 10 0 5 7 7 15 4 8 -4 21 -1
28 5 7 5 30 12 52 15 42 5 73 26 39 26 -17 0 -20 5 -16 30 2 16 7 28 11 26 9
-6 37 11 30 18 -3 3 -15 7 -28 9 -12 2 -26 10 -31 17 -6 10 -12 11 -22 3 -7
-6 -20 -10 -28 -10 -8 0 -25 -3 -37 -7 -15 -5 -23 -3 -23 5 0 9 -4 8 -15 -1
-8 -7 -12 -17 -8 -24 3 -6 0 -5 -8 2 -12 11 -11 15 4 27 10 7 27 11 37 8 12
-3 20 0 20 6 0 7 -4 10 -8 7 -4 -2 -13 4 -20 15 -10 16 -9 19 3 19 8 0 15 -6
16 -12 0 -7 4 -2 10 10 5 13 7 28 3 33 -3 5 2 9 11 9 11 0 15 -5 12 -14 -3 -8
-2 -26 1 -41 7 -26 9 -26 22 -9 9 11 10 15 3 10 -7 -4 -13 -2 -13 3 0 11 14
15 39 11 10 -1 12 6 8 30 -5 23 -4 29 6 24 9 -5 9 -4 1 5 -9 10 -17 10 -33 1
-18 -9 -28 -8 -54 9 -21 14 -26 21 -15 21 9 0 20 -4 23 -10 8 -13 25 -13 25 1
0 5 -4 7 -10 4 -5 -3 -12 5 -16 19 -6 24 -7 24 -30 9 -29 -19 -31 -10 -4 19
15 16 17 24 8 29 -8 5 -16 1 -20 -12 -6 -17 -11 -18 -28 -9 -25 13 -22 46 3
42 9 -2 17 1 17 7 0 5 3 17 6 25 5 12 2 15 -12 9 -12 -4 -15 -3 -10 5 4 7 13
12 21 12 8 0 17 5 21 12 5 7 3 8 -6 3 -10 -6 -12 -4 -7 9 6 14 3 16 -14 11
-15 -5 -19 -4 -15 4 10 15 46 14 46 -1 0 -8 5 -5 11 4 5 10 9 21 9 24 -3 12
24 24 53 24 27 0 38 22 17 35 -6 4 -8 11 -4 16 4 6 11 5 20 -2 12 -10 16 -8
21 9 3 12 9 22 13 22 5 0 12 9 15 20 5 14 12 19 24 15 11 -3 24 2 32 12 12 15
12 16 -1 8 -9 -5 -8 0 4 13 21 24 38 29 34 11 -2 -6 3 -14 11 -17 8 -2 11 0 8
5 -4 6 7 13 23 17 17 3 30 10 30 15 0 5 -8 7 -17 5 -23 -5 -54 15 -35 23 6 2
13 14 13 26 1 17 2 18 6 5 2 -10 8 -18 13 -18 4 0 6 9 3 20 -3 12 1 22 11 26
9 3 13 11 10 16 -4 6 -9 5 -14 -2 -15 -24 -38 -4 -32 27 3 15 7 22 9 16 3 -7
12 -13 21 -13 12 0 13 3 4 12 -16 16 -15 45 1 51 6 2 8 8 4 13 -5 5 -15 1 -23
-10 -13 -19 -14 -19 -14 7 0 18 5 27 16 27 8 0 12 5 9 10 -4 6 -11 8 -16 5 -5
-4 -9 2 -9 11 0 16 -1 16 -14 -1 -13 -18 -14 -18 -37 4 l-23 22 -9 -23 c-6
-14 -11 -18 -14 -10 -3 6 -11 12 -18 12 -20 0 -24 22 -8 53 7 15 10 27 6 26
-16 -2 -53 14 -48 21 3 4 -2 10 -10 14 -8 3 -15 1 -15 -4 0 -6 -4 -10 -10 -10
-18 0 -10 22 10 27 11 3 20 9 20 14 0 5 5 9 11 9 5 0 8 -4 4 -9 -3 -5 -1 -12
4 -15 5 -3 12 1 15 10 3 8 10 13 15 9 5 -3 13 0 17 6 8 14 -88 8 -98 -6 -5 -6
-8 -5 -8 3 0 13 -26 17 -33 5 -2 -5 -2 -2 0 5 1 8 3 20 3 28 0 8 8 15 18 15
16 1 16 2 0 6 -20 5 -23 14 -8 29 16 16 -3 32 -32 27 -18 -3 -25 -10 -21 -19
3 -8 0 -14 -7 -14 -6 0 -8 -4 -5 -10 3 -5 2 -10 -4 -10 -5 0 -13 5 -16 10 -3
6 -1 10 4 10 6 0 11 7 11 15 0 9 7 18 15 21 8 4 15 14 15 23 0 12 2 13 9 3 6
-10 10 -9 14 7 3 14 0 21 -9 21 -8 0 -17 6 -20 14 -3 8 -13 12 -26 8 -14 -3
-19 -1 -16 8 6 18 47 20 57 3 6 -12 9 -12 19 0 10 12 7 18 -14 32 -21 14 -28
15 -35 4 -4 -7 -11 -10 -16 -6 -11 12 19 28 44 24 22 -4 34 15 25 41 -3 10 -8
8 -17 -5 -7 -10 -16 -16 -19 -13 -8 9 5 51 14 45 4 -3 10 4 13 14 4 15 -1 18
-24 16 -16 -1 -29 1 -29 6 0 5 9 9 20 9 13 0 18 5 14 15 -4 8 -2 15 4 15 5 0
13 -7 16 -16 6 -15 8 -15 24 2 9 11 26 19 37 18 17 -1 20 5 20 40 0 23 -4 45
-10 49 -6 5 1 6 15 3 l25 -5 -25 19 c-21 17 -23 21 -10 30 8 5 24 7 35 4 16
-4 17 -3 5 5 -12 9 -12 13 -2 19 7 5 10 16 6 25 -3 10 -1 17 5 17 8 0 9 5 3
16 -10 18 -4 64 9 64 5 0 9 -4 9 -10 0 -19 19 -10 26 12 4 15 1 25 -12 35 -15
11 -15 13 -2 13 9 0 19 7 22 16 10 25 7 37 -8 31 -8 -3 -17 4 -23 16 -11 26
-6 57 9 57 7 0 7 4 0 13 -6 7 -9 23 -5 35 4 17 9 20 23 12 29 -16 45 -13 30 5
-7 8 -23 15 -36 15 -15 0 -24 6 -24 16 0 11 6 14 20 9 21 -7 28 10 8 18 -8 3
-6 6 5 6 9 1 17 -3 17 -9 0 -5 5 -10 11 -10 7 0 9 11 6 28 -3 16 0 41 8 56 13
24 13 30 0 43 -13 13 -15 13 -15 0 0 -9 4 -17 9 -19 5 -1 3 -9 -5 -16 -12 -11
-14 -10 -14 3 0 8 -4 15 -10 15 -5 0 -10 -8 -10 -17 0 -10 -4 -24 -9 -31 -7
-11 -13 -9 -30 9 -25 27 -26 23 -5 -20 9 -18 13 -35 10 -38 -8 -9 -13 -2 -18
22 -1 11 -9 25 -17 31 -11 9 -11 13 2 26 11 11 13 18 5 26 -8 8 -4 10 14 7 20
-4 27 0 31 16 6 22 -15 54 -27 42 -3 -4 -6 -1 -6 6 0 8 7 10 20 6 14 -5 20 -2
20 9 0 9 -4 16 -10 16 -5 0 -10 5 -10 11 0 5 8 9 18 8 25 -3 52 11 52 27 0 17
-17 18 -23 2 -4 -8 -6 -7 -6 3 -1 9 6 22 14 29 17 14 21 35 5 25 -5 -3 -10 -2
-10 4 0 5 4 12 9 15 5 3 7 16 4 29 -4 18 -3 19 6 7 9 -13 11 -12 11 5 0 12 6
27 13 34 10 11 8 12 -8 4 -11 -6 -26 -8 -32 -6 -7 3 -13 -1 -13 -9 0 -10 -2
-10 -9 1 -13 20 5 51 29 51 22 0 23 1 14 24 -3 9 -13 16 -21 16 -8 0 -11 5 -8
10 4 6 11 8 16 5 5 -4 9 -1 9 6 0 19 10 5 15 -21 5 -27 12 -36 21 -27 4 3 -1
22 -10 41 -21 45 -20 48 9 40 20 -5 25 -2 25 14 0 11 -7 25 -15 32 -13 11 -13
15 -3 21 20 13 28 11 28 -10 0 -26 18 -37 27 -16 3 10 1 20 -6 24 -7 4 -13 19
-15 32 -1 14 -6 30 -10 37 -8 14 10 52 25 52 6 0 8 4 4 9 -3 5 -1 12 4 16 6 3
8 12 5 19 -3 8 -1 17 5 21 14 8 14 25 1 25 -5 0 -12 -10 -15 -23 -4 -13 -13
-24 -21 -24 -17 0 -17 -1 0 33 8 15 13 31 10 36 -10 15 8 31 18 17 7 -10 7 -7
3 8 -5 19 -2 22 20 20 19 -1 31 5 42 23 14 25 14 25 -2 3 -10 -13 -24 -23 -31
-23 -17 0 -18 16 -1 24 10 5 10 7 0 12 -7 3 -13 10 -13 15 0 15 33 48 43 42 4
-3 3 4 -4 15 -7 12 -16 19 -20 16 -4 -2 -10 0 -13 5 -8 13 23 23 48 15 16 -5
18 -4 9 6 -6 7 -9 19 -6 26 3 8 -2 16 -10 20 -10 3 -13 12 -10 22 5 12 2 14
-11 9 -11 -4 -15 -3 -10 4 3 6 14 9 24 6 34 -9 44 9 20 36 -13 15 -27 24 -32
21 -4 -3 -8 -1 -8 5 0 5 5 13 10 16 6 3 10 1 10 -4 0 -6 5 -11 11 -11 6 0 9 7
6 15 -4 8 -2 17 4 21 6 3 8 12 5 20 -3 9 2 18 12 21 19 8 41 33 42 48 0 6 -4
4 -9 -4 -6 -10 -10 -10 -16 -1 -12 19 -12 70 -1 70 6 0 4 5 -4 10 -13 9 -13
11 0 20 14 9 7 15 -14 11 -4 -1 -6 19 -4 43 3 29 1 43 -5 39 -6 -4 -7 4 -3 21
6 25 5 26 -14 16 -22 -12 -44 -5 -34 12 4 6 10 5 15 -3 7 -11 9 -11 9 -1 0 17
-20 38 -45 46 -11 3 -32 17 -48 31 -23 22 -28 24 -33 10 -5 -11 -10 -13 -19
-5 -6 5 -15 7 -19 3 -12 -12 -55 -14 -75 -4 -14 8 -20 7 -24 -4 -4 -9 -1 -12
9 -8 10 4 14 -3 14 -23 -1 -24 -2 -26 -11 -12 -5 10 -16 15 -25 11 -8 -3 -14
-2 -13 3 4 22 -2 23 -21 4 -11 -11 -27 -20 -35 -20 -8 0 -15 -2 -15 -4 0 -13
38 -85 42 -81 3 3 11 -2 19 -12 12 -15 12 -16 -3 -10 -10 3 -18 3 -18 -2 0 -5
-10 -11 -22 -15 -21 -5 -22 -6 -6 -22 15 -15 15 -20 3 -44 -8 -15 -11 -30 -8
-34 4 -3 2 -6 -4 -6 -17 0 -22 12 -13 35 5 14 5 26 -2 33 -8 8 -8 22 1 50 10
29 11 44 2 58 -7 13 -10 15 -11 4 0 -18 -14 -4 -33 33 -11 21 -16 24 -20 12
-4 -8 -2 -15 3 -15 6 0 10 -5 10 -11 0 -7 -10 -9 -27 -5 -18 4 -23 3 -15 -2 8
-5 12 -18 11 -28 -2 -11 0 -25 4 -31 4 -7 2 -32 -4 -55 -7 -24 -12 -47 -11
-51 1 -4 -5 -10 -13 -13 -8 -3 -13 -10 -10 -15 3 -4 -1 -24 -9 -44 -8 -19 -11
-35 -7 -35 4 0 8 -14 8 -31 l0 -31 -14 26 c-14 26 -37 34 -48 16 -3 -5 -1 -10
4 -10 6 0 11 -15 11 -32 -1 -31 -2 -32 -15 -14 -8 10 -12 24 -8 29 4 7 -1 8
-12 4 -14 -6 -16 -3 -12 13 3 11 1 18 -4 14 -5 -3 -9 -12 -9 -19 0 -22 -47
-14 -72 12 -12 13 -28 23 -35 23 -7 0 -19 11 -25 25 -6 14 -14 25 -18 25 -14
0 -50 80 -50 113 0 23 -6 40 -18 49 -24 17 -36 84 -17 92 8 3 11 13 8 24 -2
11 0 23 5 26 6 3 8 14 5 25 -4 15 -17 20 -61 23 -95 8 -226 3 -247 -9 -11 -7
-33 -15 -49 -18 -15 -3 -26 -9 -23 -12 3 -3 -1 -13 -10 -22 -12 -11 -17 -13
-21 -3 -2 6 -8 12 -13 12 -4 0 -5 -8 -2 -17 6 -15 4 -16 -8 -6 -21 17 -51 19
-76 5 -13 -7 -23 -9 -23 -4 0 5 -11 7 -25 4 -14 -2 -25 0 -25 6 0 7 -10 6 -30
-1 -16 -6 -30 -17 -30 -25 0 -7 -4 -11 -9 -8 -5 3 -14 -1 -21 -9 -10 -12 -9
-15 5 -15 16 0 16 -2 3 -22 -18 -27 -44 -38 -35 -14 4 9 3 16 -2 16 -14 0 -22
-103 -8 -112 9 -6 9 -10 -1 -20 -17 -17 -15 -26 8 -33 26 -8 26 -25 0 -25 -17
0 -20 -7 -20 -45 0 -38 3 -45 19 -45 26 0 51 -10 51 -21 0 -5 -9 -9 -20 -9
-11 0 -20 -4 -20 -10 0 -5 -5 -10 -11 -10 -6 0 -8 7 -5 16 3 8 2 12 -4 9 -15
-9 -11 -245 4 -245 7 0 6 -3 -2 -8 -11 -8 -15 -94 -12 -302 0 -25 -10 -385
-11 -385 -5 0 -3 -58 3 -61 5 -3 5 -11 1 -17 -7 -12 -15 -213 -15 -392 0 -90
15 -175 31 -175 3 0 6 -27 6 -61 0 -33 3 -63 8 -66 4 -2 4 -9 1 -15 -7 -10 50
-130 74 -156 7 -8 19 -12 26 -9 7 3 19 0 25 -6 16 -16 14 -44 -4 -51 -24 -9
-17 -73 9 -80 19 -6 20 -7 4 -17 -10 -5 -18 -16 -18 -24 0 -7 -5 -26 -12 -42
-6 -15 -12 -32 -12 -38 -1 -5 -6 -19 -12 -30 -11 -18 -26 -74 -25 -92 0 -5 -7
-18 -15 -31 -9 -13 -27 -54 -40 -90 -14 -37 -34 -86 -44 -109 -11 -24 -20 -51
-20 -62 0 -11 -4 -21 -8 -23 -4 -1 -21 -25 -36 -53 -81 -141 -276 -359 -373
-418 -18 -10 -33 -23 -33 -28 0 -5 -5 -9 -10 -9 -6 0 -34 -15 -63 -33 -83 -53
-146 -87 -165 -88 -10 0 -12 -3 -4 -6 22 -9 2 -23 -34 -23 -22 0 -37 -6 -40
-15 -4 -8 -17 -15 -30 -15 -13 0 -24 -4 -24 -10 0 -5 -9 -10 -19 -10 -11 0
-23 -5 -26 -10 -4 -6 -12 -10 -18 -9 -28 3 -38 -2 -47 -27 -8 -19 -15 -24 -28
-19 -29 12 -46 13 -69 4 -16 -6 -23 -5 -23 4 0 6 -7 3 -16 -8 -12 -16 -18 -18
-34 -7 -12 7 -36 10 -58 7 -153 -21 -276 -48 -289 -65 -11 -13 -12 -13 -13 3
0 10 -4 15 -10 12 -5 -3 -10 -1 -10 4 0 6 -7 11 -15 11 -9 0 -26 6 -38 14 -12
8 -43 17 -69 20 -40 6 -49 4 -67 -15 -19 -21 -21 -21 -21 -4 0 17 -7 17 -107
11 -292 -19 -650 -12 -673 13 -14 16 -55 31 -113 42 -61 11 -66 11 -87 -9 -15
-14 -29 -19 -39 -14 -9 4 -25 7 -36 7 -28 -2 -45 13 -38 32 5 13 2 15 -11 10
-11 -5 -15 -3 -10 4 4 7 1 10 -6 7 -8 -2 -22 4 -32 14 -10 10 -32 18 -49 18
-17 0 -45 11 -62 24 -18 13 -47 29 -64 37 -18 8 -33 17 -33 20 0 4 -15 12 -32
20 -18 7 -66 34 -106 61 -41 26 -78 48 -83 48 -5 0 -9 3 -9 8 0 4 -16 19 -35
35 -19 15 -32 21 -29 14 7 -20 171 -167 186 -167 10 0 9 -3 -2 -10 -13 -8 -13
-10 2 -10 9 0 24 -10 32 -21 10 -15 21 -20 35 -16 19 4 25 -2 23 -24 -1 -3 12
-3 29 -1 17 3 29 0 29 -7 0 -6 3 -10 8 -9 17 3 63 -23 57 -33 -4 -6 1 -17 11
-25 11 -9 13 -12 5 -8 -10 5 -11 1 -7 -14 9 -28 -9 -36 -44 -18 -17 8 -30 10
-30 5 0 -5 4 -9 9 -9 12 0 8 -27 -7 -42 -9 -9 -12 -6 -12 14 0 14 -6 28 -14
31 -12 5 -12 0 1 -30 9 -24 11 -38 4 -42 -5 -4 -7 -11 -3 -17 11 -16 38 -24
49 -13 5 5 9 1 10 -11 2 -17 -1 -18 -18 -10 -16 9 -21 7 -28 -14 -6 -13 -15
-26 -22 -28 -9 -3 -9 -10 1 -28 7 -14 9 -22 5 -17 -5 4 -17 0 -27 -10 -10 -9
-18 -13 -18 -9 0 4 -7 1 -15 -8 -8 -8 -12 -22 -9 -30 7 -19 21 -21 27 -3 2 6
2 0 0 -15 -3 -19 1 -28 14 -31 15 -4 14 -5 -4 -6 -12 0 -24 5 -27 12 -2 6 -4
2 -2 -11 1 -13 8 -27 15 -32 11 -6 11 -12 1 -26 -10 -16 -11 -16 -6 -1 6 20
-4 22 -24 5 -12 -11 -12 -10 -1 5 11 14 11 17 -3 17 -11 0 -16 -9 -16 -26 0
-14 4 -23 10 -19 6 3 10 2 10 -3 0 -5 -8 -12 -18 -14 -24 -7 -29 -57 -4 -53 9
2 21 4 25 4 5 1 5 6 2 11 -4 6 -11 8 -16 5 -5 -4 -9 -1 -9 4 0 20 28 11 44
-14 9 -14 12 -25 6 -25 -5 0 -10 6 -10 13 -1 7 -6 5 -14 -5 -7 -10 -16 -15
-20 -11 -4 4 -4 0 0 -10 3 -9 12 -17 19 -17 8 0 10 -9 7 -25 -2 -14 -9 -25
-14 -25 -5 0 -7 4 -4 9 10 16 -5 41 -24 41 -10 0 -20 5 -22 12 -2 6 -10 8 -16
4 -14 -9 8 -36 30 -36 7 0 14 -13 15 -29 1 -21 -3 -30 -17 -34 -11 -3 -20 -1
-20 4 0 5 5 9 10 9 13 0 13 27 1 35 -5 3 -13 0 -17 -6 -4 -8 -3 -9 4 -5 18 11
14 -2 -10 -35 -19 -25 -20 -31 -8 -39 8 -5 18 -6 22 -4 4 3 8 0 8 -5 0 -6 -7
-11 -15 -11 -12 0 -13 -4 -3 -25 6 -14 15 -25 19 -25 5 0 6 -7 2 -16 -5 -14
-7 -14 -21 -1 -8 9 -15 25 -16 38 0 12 -6 24 -13 26 -7 3 -9 -4 -6 -18 5 -18
3 -21 -10 -16 -16 6 -27 -11 -27 -44 0 -11 6 -19 13 -18 6 1 23 1 37 0 24 -2
24 -2 6 -16 -11 -8 -28 -13 -38 -9 -10 3 -18 1 -18 -5 0 -6 9 -11 19 -11 22 0
39 -19 19 -21 -7 -1 -16 -1 -20 0 -4 0 -5 -10 -2 -23 2 -15 -2 -26 -11 -30
-19 -7 -20 -26 -1 -26 7 0 16 9 19 20 8 31 22 24 24 -13 2 -24 0 -28 -7 -17
-7 10 -12 11 -17 4 -5 -6 -16 -13 -26 -17 -15 -6 -16 -9 -5 -21 7 -7 19 -11
25 -9 20 8 15 -8 -9 -28 -20 -18 -33 -23 -50 -20 -4 0 -5 -6 -2 -14 5 -11 11
-12 25 -5 14 8 17 7 13 -3 -7 -18 -59 -48 -69 -39 -5 4 -5 2 -2 -5 4 -6 1 -14
-5 -16 -9 -4 -8 -6 3 -6 8 -1 19 3 25 9 6 6 9 0 9 -15 0 -17 -3 -21 -12 -13
-9 7 -13 7 -13 -1 0 -7 -7 -19 -15 -27 -8 -9 -15 -30 -16 -47 0 -18 -2 -40 -4
-49 -2 -10 0 -18 5 -18 10 0 19 -46 11 -58 -9 -13 -41 -23 -41 -12 0 6 -9 10
-19 10 -16 0 -19 -6 -17 -36 3 -26 0 -34 -10 -30 -8 3 -14 1 -14 -4 0 -5 -8
-7 -17 -4 -11 4 -14 2 -8 -3 6 -4 11 -21 12 -36 1 -21 -3 -27 -16 -25 -9 2
-16 13 -15 26 1 26 -11 29 -20 5 -4 -10 -1 -20 9 -25 8 -5 15 -14 15 -20 0 -9
-3 -9 -12 0 -17 17 -28 15 -28 -5 0 -16 -14 -10 -16 8 -1 5 -2 14 -3 19 0 6
-6 10 -12 10 -8 0 -8 -4 0 -14 14 -17 -6 -36 -41 -39 -13 0 -25 -4 -28 -8 -3
-4 -38 -14 -79 -22 -41 -9 -78 -21 -82 -28 -6 -10 -11 -10 -22 -1 -19 16 -77
23 -71 8 2 -6 14 -16 26 -21 26 -12 39 -41 14 -32 -9 4 -47 11 -84 17 -66 10
-248 71 -287 96 -11 7 -40 18 -65 24 -126 33 -439 205 -602 332 -21 17 -38 26
-38 21 0 -5 30 -31 68 -58 37 -27 87 -66 112 -86 76 -63 387 -215 555 -271
153 -51 369 -102 358 -84 -4 6 1 6 13 2 10 -4 52 -16 92 -26 41 -10 76 -21 80
-24 10 -11 -43 -6 -98 8 -30 8 -57 13 -60 11 -3 -2 -70 12 -150 31 -80 19
-154 36 -165 37 -11 2 -44 12 -73 21 -29 10 -55 16 -57 14 -3 -2 28 -15 68
-28 55 -18 67 -25 52 -30 -16 -6 -8 -10 35 -23 56 -15 184 -44 320 -72 73 -14
60 -14 -75 2 -27 3 -47 3 -44 -1 8 -9 387 -54 509 -60 58 -3 195 -9 305 -13
l200 -8 -135 -6 c-172 -9 -537 4 -705 25 -238 29 -505 97 -775 196 -169 63
-329 147 -313 165 5 4 2 5 -4 1 -7 -4 -23 0 -35 10 -21 15 -21 16 -3 10 23 -6
18 -3 -144 118 -226 168 -397 368 -531 619 -27 52 -57 116 -66 143 -9 27 -22
63 -29 79 -20 43 -66 197 -62 202 5 4 11 -11 63 -152 54 -148 144 -330 178
-360 6 -5 35 -42 65 -82 30 -40 58 -70 63 -67 5 3 8 2 7 -3 -3 -18 1 -33 9
-30 4 1 37 -29 72 -67 245 -262 479 -424 764 -530 54 -21 100 -35 102 -33 2 2
-29 16 -68 32 -99 38 -233 106 -321 161 -92 59 -237 167 -237 177 0 5 6 5 13
1 8 -5 8 -3 -2 9 -7 9 -16 15 -20 12 -9 -5 -186 174 -253 255 -136 165 -247
375 -327 615 -77 233 -115 429 -145 745 l-13 135 -2 -86 c-1 -114 25 -370 50
-487 11 -52 19 -96 16 -98 -5 -6 -45 176 -58 266 -25 186 -29 390 -35 1910 -4
888 -10 1621 -14 1629 -19 35 -21 -242 -17 -1764 3 -1386 6 -1627 19 -1735 9
-69 19 -150 22 -180 l6 -55 -14 60 c-8 33 -22 125 -32 205 -16 132 -18 267
-20 1540 -1 767 -4 1566 -5 1775 -2 266 0 386 8 400 28 51 105 89 158 79 17
-3 486 -8 1043 -10z m6016 -369 c-4 -8 -10 -12 -15 -9 -14 8 -10 24 6 24 9 0
12 -6 9 -15z m-54 -15 c0 -5 -2 -10 -4 -10 -3 0 -8 5 -11 10 -3 6 -1 10 4 10
6 0 11 -4 11 -10z m-64 -15 c18 -14 18 -14 -7 -15 -15 0 -29 7 -33 15 -7 19
14 19 40 0z m-1030 -25 c8 0 14 -8 14 -19 0 -22 -44 -32 -80 -19 -18 7 -19 10
-8 21 22 22 53 36 56 26 2 -5 10 -9 18 -9z m108 -35 c3 -8 1 -15 -4 -15 -6 0
-10 7 -10 15 0 8 2 15 4 15 2 0 6 -7 10 -15z m1150 3 c-3 -4 -9 -8 -15 -8 -5
0 -9 4 -9 8 0 5 7 9 15 9 8 0 12 -4 9 -9z m-1317 -43 c9 -25 -4 -29 -17 -6 -7
15 -7 21 0 21 6 0 13 -7 17 -15z m1343 -74 c0 -5 -9 -11 -20 -14 -11 -3 -20
-1 -20 3 0 5 8 11 18 13 9 3 18 5 20 6 1 0 2 -3 2 -8z m-1380 -21 c0 -5 -2
-10 -4 -10 -3 0 -8 5 -11 10 -3 6 -1 10 4 10 6 0 11 -4 11 -10z m1428 -12 c-6
-18 -28 -21 -28 -4 0 9 7 16 16 16 9 0 14 -5 12 -12z m-378 -27 c0 -6 -4 -13
-10 -16 -5 -3 -10 1 -10 9 0 9 5 16 10 16 6 0 10 -4 10 -9z m390 -21 c11 -11
15 -22 10 -25 -6 -4 -10 -1 -10 5 0 6 -4 9 -8 6 -13 -8 -35 11 -28 23 10 15
13 14 36 -9z m-336 -16 c8 -21 8 -24 -3 -24 -5 0 -11 9 -14 20 -6 24 8 27 17
4z m64 -22 c2 -7 -3 -12 -12 -12 -9 0 -19 -1 -23 -2 -3 -2 -7 5 -9 14 -1 13 4
17 19 14 11 -1 23 -8 25 -14z m182 4 c0 -3 -4 -8 -10 -11 -5 -3 -10 -1 -10 4
0 6 5 11 10 11 6 0 10 -2 10 -4z m-325 -46 c3 -5 1 -10 -4 -10 -6 0 -11 5 -11
10 0 6 2 10 4 10 3 0 8 -4 11 -10z m352 -82 c-3 -8 -6 -5 -6 6 -1 11 2 17 5
13 3 -3 4 -12 1 -19z m13 -98 c-9 -6 -19 -5 -28 3 -12 9 -11 12 5 18 24 9 43
-8 23 -21z m-84 -290 c8 0 14 -8 14 -17 0 -15 -2 -16 -10 -3 -9 13 -10 13 -11
0 0 -16 -18 17 -18 35 1 6 3 4 6 -2 2 -7 11 -13 19 -13z m-16 -65 c0 -8 -4
-15 -10 -15 -5 0 -7 7 -4 15 4 8 8 15 10 15 2 0 4 -7 4 -15z m5 -64 c-3 -6
-11 -8 -17 -5 -6 4 -5 9 3 15 16 10 23 4 14 -10z m-77 -336 c-9 -9 -30 14 -23
25 6 9 10 8 17 -4 6 -10 8 -19 6 -21z m-68 -51 c0 -8 -4 -12 -10 -9 -5 3 -10
10 -10 16 0 5 5 9 10 9 6 0 10 -7 10 -16z m15 -104 c-3 -5 -11 -10 -16 -10 -6
0 -7 5 -4 10 3 6 11 10 16 10 6 0 7 -4 4 -10z m-60 -80 c3 -5 1 -10 -4 -10 -6
0 -11 5 -11 10 0 6 2 10 4 10 3 0 8 -4 11 -10z m113 -17 c-2 -9 -9 -18 -16
-19 -7 -1 -8 0 -3 2 6 3 7 12 4 20 -3 8 0 14 7 14 6 0 10 -8 8 -17z m-81 -145
c-3 -8 -6 -5 -6 6 -1 11 2 17 5 13 3 -3 4 -12 1 -19z m14 -35 c-12 -20 -14
-14 -5 12 4 9 9 14 11 11 3 -2 0 -13 -6 -23z m28 -66 c6 -8 8 -17 4 -20 -11
-12 -23 -7 -23 9 0 8 -4 12 -10 9 -5 -3 -10 -1 -10 4 0 15 25 14 39 -2z m-69
-21 c0 -2 -7 -6 -15 -10 -8 -3 -15 -1 -15 4 0 6 7 10 15 10 8 0 15 -2 15 -4z
m-20 -46 c0 -5 -2 -10 -4 -10 -3 0 -8 5 -11 10 -3 6 -1 10 4 10 6 0 11 -4 11
-10z m-35 -20 c-3 -5 -1 -10 6 -10 7 0 10 -3 6 -6 -9 -9 -28 6 -22 17 4 5 8 9
11 9 3 0 2 -4 -1 -10z m85 -20 c0 -5 -5 -10 -11 -10 -5 0 -7 5 -4 10 3 6 8 10
11 10 2 0 4 -4 4 -10z m-33 -32 c-3 -8 -6 -5 -6 6 -1 11 2 17 5 13 3 -3 4 -12
1 -19z m23 -25 c-1 -22 -19 -35 -36 -28 -17 8 -17 9 4 12 12 3 20 9 17 14 -4
5 -1 9 4 9 6 0 11 -3 11 -7z m-70 -13 c0 -5 -7 -10 -15 -10 -8 0 -15 5 -15 10
0 6 7 10 15 10 8 0 15 -4 15 -10z m10 -30 c0 -5 -5 -10 -11 -10 -5 0 -7 5 -4
10 3 6 8 10 11 10 2 0 4 -4 4 -10z m40 -4 c0 -3 -4 -8 -10 -11 -5 -3 -10 -1
-10 4 0 6 5 11 10 11 6 0 10 -2 10 -4z m-65 -17 c11 -16 1 -19 -13 -3 -7 8 -8
14 -3 14 5 0 13 -5 16 -11z m17 -109 c-14 -14 -34 -23 -44 -22 -9 2 -27 -2
-39 -8 -17 -10 -20 -9 -17 2 3 7 10 13 17 13 7 0 20 9 28 20 13 16 15 17 10 3
-4 -12 -1 -18 8 -18 18 0 20 26 3 36 -9 6 -5 10 12 14 41 10 53 -11 22 -40z
m-108 -85 c-4 -8 -10 -12 -15 -9 -11 6 -2 24 11 24 5 0 7 -7 4 -15z m11 -226
c4 -5 -3 -9 -14 -9 -26 0 -35 15 -11 17 11 1 22 -2 25 -8z m249 -305 c3 -8 2
-12 -4 -9 -6 3 -10 10 -10 16 0 14 7 11 14 -7z m-274 -55 c0 -5 -5 -7 -12 -3
-8 5 -9 2 -5 -9 3 -10 2 -17 -3 -17 -6 0 -10 9 -10 20 0 11 7 20 15 20 8 0 15
-5 15 -11z m100 2 c0 -11 -38 -21 -56 -14 -8 3 -11 9 -8 14 7 12 64 12 64 0z
m8 -53 c-5 -15 -23 -11 -26 6 -2 11 2 14 13 10 9 -4 14 -11 13 -16z m-108 2
c0 -5 -5 -10 -11 -10 -5 0 -7 5 -4 10 3 6 8 10 11 10 2 0 4 -4 4 -10z m-260
-80 c0 -6 -4 -10 -10 -10 -5 0 -10 4 -10 10 0 5 -19 3 -41 -5 -53 -19 -56 -19
-35 4 10 11 28 21 40 23 24 5 56 -8 56 -22z m291 -27 c13 -17 13 -17 -6 -3
-11 8 -22 16 -24 17 -2 2 0 3 6 3 6 0 17 -8 24 -17z m-401 -21 c0 -12 -3 -12
-15 -2 -8 7 -15 13 -15 15 0 1 7 2 15 2 8 0 15 -7 15 -15z m465 8 c3 -6 -1 -7
-9 -4 -18 7 -21 14 -7 14 6 0 13 -4 16 -10z m-318 -22 c-3 -8 -6 -5 -6 6 -1
11 2 17 5 13 3 -3 4 -12 1 -19z m243 9 c0 -6 -3 -7 -7 -4 -3 4 -11 3 -18 -3
-6 -5 -21 -6 -34 -3 -14 3 -18 8 -11 13 17 10 70 8 70 -3z m-140 -11 c-14 -8
-28 -12 -32 -10 -4 2 -14 -6 -22 -18 -9 -12 -16 -17 -16 -11 0 7 5 15 10 18 6
4 8 10 5 15 -3 5 7 11 22 13 52 8 58 6 33 -7z m-270 -5 c0 -5 -7 -11 -14 -14
-10 -4 -13 -1 -9 9 6 15 23 19 23 5z m425 -11 c3 -5 -1 -10 -9 -10 -9 0 -16 5
-16 10 0 6 4 10 9 10 6 0 13 -4 16 -10z m172 4 c-3 -3 -12 -4 -19 -1 -8 3 -5
6 6 6 11 1 17 -2 13 -5z m-277 -34 c0 -11 -4 -20 -9 -20 -5 0 -7 9 -4 20 3 11
7 20 9 20 2 0 4 -9 4 -20z m-380 0 c-8 -5 -26 -9 -40 -9 -23 1 -23 2 5 9 43
11 52 11 35 0z m460 -1 c0 -5 5 -7 10 -4 6 3 10 -1 10 -9 0 -9 -7 -16 -15 -16
-8 0 -15 6 -15 14 0 8 -6 17 -12 19 -8 3 -6 6 5 6 9 1 17 -4 17 -10z m-354
-10 c4 -8 0 -9 -15 -4 -12 4 -21 2 -21 -4 0 -6 -5 -11 -11 -11 -8 0 -8 5 1 15
15 18 36 20 46 4z m194 -19 c0 -5 -7 -7 -15 -4 -8 4 -12 10 -9 15 6 11 24 2
24 -11z m-61 -39 l-2 -26 -4 28 c-2 15 -9 27 -14 27 -5 0 -9 5 -9 11 0 8 5 8
15 -1 8 -7 14 -24 14 -39z m178 27 c-3 -8 -6 -5 -6 6 -1 11 2 17 5 13 3 -3 4
-12 1 -19z m-146 -58 c-9 -13 -15 -27 -15 -30 1 -3 -1 -11 -4 -18 -2 -7 -2
-16 2 -19 3 -4 6 -1 6 5 0 7 5 12 10 12 20 0 10 -38 -15 -56 -14 -10 -25 -23
-25 -28 0 -5 16 -23 35 -42 39 -37 42 -42 19 -40 -18 1 -94 64 -94 78 0 4 7 8
15 8 17 0 20 17 5 22 -6 2 -12 17 -13 33 -3 27 -6 30 -32 27 -25 -3 -27 -1
-16 12 8 9 19 16 27 16 7 0 16 5 19 10 4 6 2 9 -3 8 -13 -4 -16 16 -3 20 5 2
15 -6 21 -18 10 -19 12 -19 28 -4 9 10 15 28 14 41 -4 24 -3 24 15 6 18 -17
18 -20 4 -43z m97 44 c6 3 13 2 17 -4 3 -5 1 -10 -4 -10 -6 0 -11 -5 -11 -11
0 -5 5 -7 10 -4 15 9 12 -4 -4 -20 -12 -12 -15 -11 -19 7 -5 17 -9 19 -21 9
-8 -7 -17 -8 -20 -3 -3 6 1 12 9 16 8 3 15 13 15 23 0 14 2 15 9 4 5 -7 13
-11 19 -7z m89 0 c-3 -3 -12 -4 -19 -1 -8 3 -5 6 6 6 11 1 17 -2 13 -5z m-237
-14 c0 -5 -4 -10 -10 -10 -5 0 -10 5 -10 10 0 6 5 10 10 10 6 0 10 -4 10 -10z
m867 -12 c-3 -8 -6 -5 -6 6 -1 11 2 17 5 13 3 -3 4 -12 1 -19z m-927 2 c0 -5
-5 -10 -11 -10 -5 0 -7 5 -4 10 3 6 8 10 11 10 2 0 4 -4 4 -10z m-256 -8 c3
-5 -1 -9 -9 -9 -8 0 -12 4 -9 9 3 4 7 8 9 8 2 0 6 -4 9 -8z m31 -2 c3 -5 1
-10 -4 -10 -6 0 -11 5 -11 10 0 6 2 10 4 10 3 0 8 -4 11 -10z m895 0 c0 -5 -4
-10 -10 -10 -5 0 -10 5 -10 10 0 6 5 10 10 10 6 0 10 -4 10 -10z m130 -21 c0
-5 -6 -9 -14 -9 -8 0 -14 9 -13 19 1 15 4 17 14 9 7 -6 13 -14 13 -19z m-652
-8 c3 -8 -1 -12 -9 -9 -7 2 -15 10 -17 17 -3 8 1 12 9 9 7 -2 15 -10 17 -17z
m715 -24 c-7 -11 -33 13 -33 29 0 11 5 10 18 -3 11 -10 17 -22 15 -26z m-1142
-8 c6 -12 14 -18 18 -13 3 5 17 10 31 12 24 3 24 2 5 -12 -26 -20 -65 -20 -65
-1 0 8 -4 15 -10 15 -5 0 -10 5 -10 10 0 18 19 11 31 -11z m151 14 c-6 -2 -10
-9 -6 -14 3 -5 -5 -7 -18 -5 -13 3 -27 5 -33 5 -21 2 21 21 45 20 14 0 19 -3
12 -6z m78 -18 c0 -23 -2 -24 -20 -13 -19 12 -19 14 -3 26 22 16 23 16 23 -13z
m857 3 c-3 -8 -6 -5 -6 6 -1 11 2 17 5 13 3 -3 4 -12 1 -19z m-642 2 c-27 -12
-43 -12 -25 0 8 5 22 9 30 9 10 0 8 -3 -5 -9z m50 -8 c-3 -3 -11 0 -18 7 -9
10 -8 11 6 5 10 -3 15 -9 12 -12z m525 8 c18 -12 2 -12 -25 0 -13 6 -15 9 -5
9 8 0 22 -4 30 -9z m-720 -15 c-7 -8 -17 -15 -22 -15 -6 0 -5 7 2 15 7 8 17
15 22 15 6 0 5 -7 -2 -15z m126 -32 c-10 -10 -19 5 -10 18 6 11 8 11 12 0 2
-7 1 -15 -2 -18z m-333 -4 c4 -3 1 -12 -8 -19 -13 -11 -14 -10 -8 6 6 17 5 17
-10 5 -15 -11 -17 -11 -17 2 0 16 21 29 30 18 3 -3 9 -8 13 -12z m217 -9 c0
-5 -2 -10 -4 -10 -3 0 -8 5 -11 10 -3 6 -1 10 4 10 6 0 11 -4 11 -10z m-60
-21 c-14 -24 -7 -34 16 -25 10 4 14 12 10 22 -4 9 -1 14 6 12 15 -5 37 -83 28
-98 -5 -8 -14 -5 -30 12 l-23 23 7 -29 c6 -25 5 -27 -8 -14 -8 9 -13 24 -10
34 4 15 0 19 -20 19 -29 0 -32 -5 -14 -23 17 -17 3 -25 -21 -13 -18 10 -19 14
-8 31 6 11 17 20 24 20 7 0 13 5 13 11 0 10 27 38 38 39 1 0 -2 -9 -8 -21z
m160 11 c0 -5 -2 -10 -4 -10 -3 0 -8 5 -11 10 -3 6 -1 10 4 10 6 0 11 -4 11
-10z m640 -6 c0 -8 -4 -12 -10 -9 -5 3 -10 10 -10 16 0 5 5 9 10 9 6 0 10 -7
10 -16z m159 -16 c0 -18 -3 -27 -6 -20 -8 19 -23 14 -23 -9 0 -11 -5 -17 -10
-14 -6 4 -8 10 -5 15 3 5 1 11 -5 15 -5 3 -10 14 -10 23 0 13 2 14 8 4 9 -13
42 -6 42 9 0 5 2 9 5 9 3 0 5 -15 4 -32z m-95 -18 c-6 -5 -24 21 -24 34 0 6 6
1 14 -10 8 -10 12 -21 10 -24z m-39 9 c-10 -15 -25 -10 -19 6 4 8 10 12 15 9
5 -3 7 -10 4 -15z m-641 -21 c7 -5 5 -8 -5 -8 -18 0 -32 24 -21 35 4 3 8 0 11
-7 2 -7 9 -16 15 -20z m-417 6 c-3 -3 -12 -4 -19 -1 -8 3 -5 6 6 6 11 1 17 -2
13 -5z m1162 -66 c-1 -31 -1 -31 -8 -8 -5 14 -6 28 -4 33 9 15 13 6 12 -25z
m-1054 12 c3 -6 -1 -7 -9 -4 -18 7 -21 14 -7 14 6 0 13 -4 16 -10z m51 -15
c-3 -8 0 -15 6 -15 7 0 6 -5 -2 -15 -19 -23 -4 -18 19 6 11 12 21 16 25 11 8
-14 -44 -50 -66 -47 -15 3 -16 0 -8 -16 6 -10 16 -19 23 -19 7 0 6 -4 -3 -10
-8 -5 -25 -7 -37 -3 -15 3 -23 1 -23 -7 0 -7 7 -10 15 -7 8 4 17 2 20 -4 4 -5
11 -7 16 -4 5 4 9 -1 9 -9 0 -21 -16 -21 -24 0 -3 8 -11 12 -17 8 -8 -4 -7 -9
2 -15 7 -4 10 -11 6 -15 -4 -4 -16 1 -27 11 -17 15 -18 20 -6 44 7 14 11 32 9
39 -3 6 0 12 7 12 6 0 9 4 6 8 -2 4 0 14 6 22 8 12 9 11 4 -4 -5 -16 -4 -17 8
-7 9 7 18 21 21 32 4 10 9 19 12 19 3 0 3 -7 -1 -15z m-171 -5 c3 -5 1 -10 -4
-10 -6 0 -11 5 -11 10 0 6 2 10 4 10 3 0 8 -4 11 -10z m90 -28 c-3 -3 -15 -7
-28 -9 -21 -4 -21 -3 -2 11 18 13 44 12 30 -2z m172 -4 c-3 -8 -6 -5 -6 6 -1
11 2 17 5 13 3 -3 4 -12 1 -19z m63 -19 c0 7 5 9 11 6 17 -11 1 -19 -40 -20
-34 -1 -37 1 -28 16 10 15 13 16 34 2 16 -10 23 -12 23 -4z m-361 -19 c9 -26
8 -30 -10 -31 -10 -1 -24 -2 -31 -3 -6 -1 -14 6 -16 14 -5 13 -3 13 11 1 22
-18 22 -3 0 22 -10 11 -12 17 -5 13 6 -4 12 -2 12 3 0 24 29 9 39 -19z m398
-22 c-3 -8 -6 -5 -6 6 -1 11 2 17 5 13 3 -3 4 -12 1 -19z m343 1 c0 -6 -4 -7
-10 -4 -5 3 -10 11 -10 16 0 6 5 7 10 4 6 -3 10 -11 10 -16z m-452 -3 c-7 -8
-15 -12 -17 -11 -5 6 10 25 20 25 5 0 4 -6 -3 -14z m42 10 c0 -3 -4 -8 -10
-11 -5 -3 -10 -1 -10 4 0 6 5 11 10 11 6 0 10 -2 10 -4z m-460 -38 c0 -14 -43
-20 -51 -7 -10 17 32 41 43 25 4 -6 8 -14 8 -18z m-166 0 c-3 -4 -9 -8 -15 -8
-5 0 -9 4 -9 8 0 5 7 9 15 9 8 0 12 -4 9 -9z m233 6 c-3 -3 -12 -4 -19 -1 -8
3 -5 6 6 6 11 1 17 -2 13 -5z m399 -2 c5 -4 10 -17 10 -29 0 -26 -21 -14 -29
17 -5 21 1 25 19 12z m-36 -7 c0 -3 -8 -15 -19 -26 -17 -19 -19 -19 -40 -1
-23 18 -23 18 -2 18 12 0 21 -4 21 -9 0 -4 5 -5 10 -2 6 4 8 11 5 16 -4 5 1 9
9 9 9 0 16 -2 16 -5z m-165 -35 c3 -5 -1 -10 -9 -10 -9 0 -16 5 -16 10 0 6 4
10 9 10 6 0 13 -4 16 -10z m35 -26 c0 -8 -5 -12 -10 -9 -6 4 -8 11 -5 16 9 14
15 11 15 -7z m563 7 c4 -1 -5 -12 -20 -26 l-28 -24 26 4 c18 3 29 0 33 -10 3
-8 1 -15 -4 -15 -6 0 -9 -6 -7 -12 1 -8 -7 -12 -20 -11 -13 2 -23 -1 -23 -6 0
-5 -8 -8 -17 -6 -10 1 -17 8 -15 15 1 7 -3 19 -10 27 -11 14 -10 15 10 9 32
-10 28 10 -5 28 -19 10 -23 15 -11 16 9 0 20 -4 23 -10 11 -17 27 -11 21 8 -5
15 -2 18 16 16 13 -1 27 -3 31 -3z m-608 -11 c3 -5 1 -10 -4 -10 -6 0 -11 5
-11 10 0 6 2 10 4 10 3 0 8 -4 11 -10z m-405 -50 c4 0 7 -8 6 -17 0 -10 5 -17
12 -15 22 4 13 -8 -14 -18 -19 -8 -24 -15 -19 -30 5 -14 2 -20 -9 -20 -9 0
-15 3 -15 8 1 4 1 20 0 36 -1 21 -5 27 -17 22 -22 -9 -8 34 19 58 22 18 22 18
25 -3 2 -11 7 -21 12 -21z m370 30 c0 -5 -4 -10 -10 -10 -5 0 -10 -7 -10 -15
0 -8 5 -15 10 -15 6 0 10 -7 10 -15 0 -8 -4 -15 -10 -15 -5 0 -10 5 -10 10 0
19 -24 10 -47 -17 -18 -22 -22 -24 -23 -10 0 9 -5 16 -11 15 -6 -2 -13 2 -16
9 -3 7 3 9 16 6 12 -3 21 -1 21 6 0 6 9 11 20 11 11 0 20 5 20 10 0 13 22 39
33 40 4 0 7 -4 7 -10z m-1245 -10 c3 -5 -3 -10 -14 -10 -12 0 -21 5 -21 10 0
6 6 10 14 10 8 0 18 -4 21 -10z m1781 -75 c-8 -8 -17 -11 -20 -6 -4 5 2 17 11
27 11 10 18 13 21 5 2 -6 -3 -18 -12 -26z m-4015 12 c-1 -4 -1 -14 -1 -24 0
-9 -3 -14 -6 -10 -3 3 -19 -8 -36 -24 -23 -21 -29 -35 -26 -54 6 -31 -12 -33
-38 -3 -17 20 -18 21 -1 15 13 -5 20 0 27 17 5 14 16 28 25 33 9 5 17 19 18
30 1 14 6 19 16 15 10 -4 12 -1 6 8 -5 8 -3 11 4 9 7 -3 12 -8 12 -12z m38
-38 c-17 -10 -24 4 -14 29 6 16 7 16 17 -2 8 -14 7 -21 -3 -27z m3138 14 c2
-6 -4 -10 -13 -9 -10 2 -20 8 -22 15 -3 8 3 12 14 9 9 -1 19 -8 21 -15z
m-5991 -200 c-5 -6 -46 169 -45 193 0 11 12 -28 25 -85 13 -57 22 -106 20
-108z m6175 192 c8 20 9 20 7 0 -2 -11 0 -24 4 -30 3 -6 -5 -11 -19 -11 -19
-2 -23 2 -18 15 5 12 3 13 -6 4 -6 -6 -19 -9 -28 -6 -13 4 -13 2 2 -10 16 -14
16 -15 1 -21 -10 -4 -21 -2 -24 5 -11 17 0 48 15 43 7 -3 19 1 26 9 12 13 15
13 23 -1 8 -14 10 -14 17 3z m-3280 -12 c13 -16 12 -17 -3 -4 -10 7 -18 15
-18 17 0 8 8 3 21 -13z m3356 1 c-3 -3 -12 -4 -19 -1 -8 3 -5 6 6 6 11 1 17
-2 13 -5z m463 -20 c0 -8 -4 -12 -10 -9 -5 3 -10 13 -10 21 0 8 5 12 10 9 6
-3 10 -13 10 -21z m50 7 c0 -5 -7 -12 -16 -15 -14 -5 -15 -4 -4 9 14 17 20 19
20 6z m-4045 -11 c3 -5 1 -10 -4 -10 -6 0 -11 5 -11 10 0 6 2 10 4 10 3 0 8
-4 11 -10z m80 -10 c-10 -11 -23 -20 -29 -20 -6 1 0 10 13 20 30 26 39 26 16
0z m4010 -1 c-8 -12 -35 -12 -35 0 0 11 22 20 33 14 4 -2 5 -9 2 -14z m555 11
c0 -5 -5 -10 -11 -10 -5 0 -7 5 -4 10 3 6 8 10 11 10 2 0 4 -4 4 -10z m40 -21
c0 -18 -18 -9 -23 12 -4 16 -3 18 9 8 8 -6 14 -15 14 -20z m-1536 5 c3 -8 2
-12 -4 -9 -6 3 -10 10 -10 16 0 14 7 11 14 -7z m41 -1 c-1 -10 -5 -25 -8 -33
-3 -8 -8 -24 -10 -35 -3 -11 -5 4 -6 33 -1 37 3 52 12 52 8 0 13 -8 12 -17z
m1345 -13 c0 -5 -4 -10 -10 -10 -5 0 -10 5 -10 10 0 6 5 10 10 10 6 0 10 -4
10 -10z m-430 -15 c0 -8 -4 -15 -9 -15 -5 0 -11 7 -15 15 -3 9 0 15 9 15 8 0
15 -7 15 -15z m-6771 -49 c6 -22 6 -35 1 -30 -4 5 -11 27 -14 49 -7 45 -2 38
13 -19z m2631 38 c0 -8 -5 -12 -10 -9 -6 4 -8 11 -5 16 9 14 15 11 15 -7z
m4695 -13 c3 -5 1 -12 -5 -16 -5 -3 -10 1 -10 9 0 18 6 21 15 7z m-4582 -21
c-3 -12 -8 -19 -11 -16 -5 6 5 36 12 36 2 0 2 -9 -1 -20z m4576 -26 c4 3 6 -5
4 -19 -6 -27 -33 -24 -33 4 0 9 -3 27 -6 41 -5 24 -5 24 11 -3 9 -15 20 -25
24 -23z m-573 -1 c-15 -15 -26 -21 -24 -13 3 16 41 51 47 44 2 -2 -8 -16 -23
-31z m223 -21 c12 -23 -24 -51 -42 -33 -8 8 -8 11 1 11 7 0 12 9 12 20 0 25
16 26 29 2z m41 -12 c0 -5 -5 -10 -11 -10 -5 0 -7 5 -4 10 3 6 8 10 11 10 2 0
4 -4 4 -10z m305 -28 c-3 -3 -11 0 -18 7 -9 10 -8 11 6 5 10 -3 15 -9 12 -12z
m-335 0 c0 -13 -12 -22 -22 -16 -10 6 -1 24 13 24 5 0 9 -4 9 -8z m-352 -39
c-15 -15 -31 -24 -34 -20 -8 8 34 47 50 47 6 0 -2 -12 -16 -27z m-808 7 c0 -5
-5 -10 -11 -10 -5 0 -7 5 -4 10 3 6 8 10 11 10 2 0 4 -4 4 -10z m34 -21 c-3
-5 -10 -7 -15 -3 -5 3 -7 10 -3 15 3 5 10 7 15 3 5 -3 7 -10 3 -15z m922 -16
c-2 -2 -11 0 -20 3 -14 5 -15 9 -5 15 12 7 34 -10 25 -18z m44 23 c0 -2 -7 -7
-16 -10 -8 -3 -12 -2 -9 4 6 10 25 14 25 6z m-236 -21 c3 -8 1 -15 -4 -15 -6
0 -10 7 -10 15 0 8 2 15 4 15 2 0 6 -7 10 -15z m-6537 -17 c-3 -8 -6 -5 -6 6
-1 11 2 17 5 13 3 -3 4 -12 1 -19z m5819 -64 c-9 -8 -16 -20 -16 -25 0 -5 -7
-9 -15 -9 -8 0 -12 6 -9 13 3 8 -4 13 -18 14 -67 1 -78 4 -78 18 0 8 5 15 10
15 6 0 10 -5 10 -11 0 -6 7 -9 15 -5 8 3 15 0 15 -7 0 -8 4 -6 10 3 7 11 10
11 10 2 0 -8 7 -6 21 7 12 11 27 17 35 14 8 -3 15 1 15 8 1 8 3 6 6 -3 2 -10
-3 -25 -11 -34z m872 34 c9 -9 12 -9 12 0 0 6 7 9 17 5 13 -5 12 -8 -7 -15
-17 -6 -28 -4 -39 7 -8 8 -11 15 -5 15 5 0 15 -5 22 -12z m2 -34 c0 -2 -7 -4
-15 -4 -8 0 -15 4 -15 10 0 5 7 7 15 4 8 -4 15 -8 15 -10z m-1025 -44 c-3 -16
-1 -30 3 -30 5 0 9 -7 9 -15 0 -8 -4 -15 -9 -15 -5 0 -6 -4 -3 -10 3 -5 1 -10
-5 -10 -6 0 -13 7 -16 15 -4 8 -11 12 -17 8 -6 -4 -1 7 11 24 12 17 19 33 16
36 -3 3 -3 10 1 16 11 19 15 12 10 -19z m95 -4 c0 -8 -4 -18 -10 -21 -5 -3 -7
0 -4 9 4 11 0 13 -17 9 -15 -4 -20 -3 -15 5 10 17 46 15 46 -2z m-149 -23 c12
-15 12 -16 -4 -10 -10 4 -23 7 -28 7 -5 0 -9 5 -9 10 0 16 26 12 41 -7z m-51
-13 c0 -5 -4 -10 -10 -10 -5 0 -10 5 -10 10 0 6 5 10 10 10 6 0 10 -4 10 -10z
m1275 -13 c10 -8 15 -19 11 -25 -11 -18 -34 -14 -41 7 -4 13 -12 18 -22 14
-11 -4 -14 -2 -9 5 10 16 38 15 61 -1z m166 -2 c-1 -5 -9 -10 -18 -10 -9 0
-18 -5 -20 -12 -3 -7 4 -10 19 -7 15 3 18 2 8 -3 -8 -5 -15 -14 -15 -20 0 -7
-4 -13 -10 -12 -5 0 -9 7 -7 15 2 8 -4 14 -13 14 -9 0 -14 -4 -10 -9 3 -6 -4
-15 -15 -21 -11 -6 -18 -16 -14 -22 4 -6 1 -9 -6 -6 -24 8 -23 28 2 37 12 6
17 10 10 10 -10 1 -10 5 2 17 9 8 21 12 28 8 8 -5 9 -2 5 9 -4 11 -2 14 7 11
8 -3 17 0 21 6 8 13 27 9 26 -5z m-306 -25 c3 -5 1 -10 -4 -10 -6 0 -11 5 -11
10 0 6 2 10 4 10 3 0 8 -4 11 -10z m105 0 c0 -5 -2 -10 -4 -10 -3 0 -8 5 -11
10 -3 6 -1 10 4 10 6 0 11 -4 11 -10z m73 -11 c-6 -6 -9 -19 -6 -28 5 -12 3
-13 -6 -5 -10 9 -10 16 0 32 7 12 15 19 18 16 3 -2 0 -9 -6 -15z m-1192 -9 c5
0 9 -4 9 -9 0 -14 -43 -7 -48 8 -3 10 0 12 12 8 10 -4 22 -7 27 -7z m1059 -2
c0 -4 -4 -8 -9 -8 -6 0 -12 4 -15 8 -3 5 1 9 9 9 8 0 15 -4 15 -9z m310 -22
c0 -2 -7 -6 -15 -10 -8 -3 -15 -1 -15 4 0 6 7 10 15 10 8 0 15 -2 15 -4z
m-115 -19 c-6 -15 32 -40 46 -31 6 3 14 16 19 28 7 18 9 16 9 -14 -1 -19 -3
-29 -6 -23 -8 21 -52 -14 -46 -36 3 -10 -1 -22 -8 -26 -8 -5 -10 -4 -5 3 4 8
0 12 -11 12 -15 0 -16 2 -3 10 10 6 11 10 3 10 -7 0 -13 5 -13 10 0 6 10 10
22 10 12 0 18 3 14 7 -10 10 -66 13 -66 3 0 -13 -29 -20 -36 -8 -4 6 -3 8 3 5
5 -3 23 7 39 22 32 31 46 38 39 18z m-187 -22 c-3 -3 -9 2 -12 12 -6 14 -5 15
5 6 7 -7 10 -15 7 -18z m47 6 c-3 -6 -11 -11 -16 -11 -5 0 -4 6 3 14 14 16 24
13 13 -3z m400 9 c3 -5 1 -10 -4 -10 -6 0 -11 5 -11 10 0 6 2 10 4 10 3 0 8
-4 11 -10z m-481 -9 c3 -4 -6 -6 -19 -3 -14 2 -25 6 -25 8 0 8 39 4 44 -5z
m356 5 c0 -3 -4 -8 -10 -11 -5 -3 -10 -1 -10 4 0 6 5 11 10 11 6 0 10 -2 10
-4z m-450 -15 c0 -8 -19 -37 -21 -31 0 3 -2 12 -4 21 -1 9 4 16 11 16 8 0 14
-3 14 -6z m531 -18 c-8 -15 -10 -15 -11 -2 0 17 10 32 18 25 2 -3 -1 -13 -7
-23z m-106 7 c3 -6 -1 -7 -9 -4 -18 7 -21 14 -7 14 6 0 13 -4 16 -10z m-355
-20 c-8 -5 -17 -7 -19 -4 -3 3 1 9 9 14 8 5 17 7 19 4 3 -3 -1 -9 -9 -14z
m517 -2 c-3 -8 -6 -5 -6 6 -1 11 2 17 5 13 3 -3 4 -12 1 -19z m-38 -14 c-15
-18 -22 -13 -13 10 3 9 10 13 16 10 5 -3 4 -12 -3 -20z m-329 6 c0 -5 -2 -10
-4 -10 -3 0 -8 5 -11 10 -3 6 -1 10 4 10 6 0 11 -4 11 -10z m205 -15 c-20 -15
-40 -24 -43 -20 -3 3 1 5 8 5 7 0 10 3 6 7 -8 8 32 32 53 33 8 0 -3 -11 -24
-25z m-4591 -6 c-8 -14 -24 -10 -24 6 0 9 6 12 15 9 8 -4 12 -10 9 -15z m4444
-4 c-3 -3 -9 2 -12 12 -6 14 -5 15 5 6 7 -7 10 -15 7 -18z m82 -10 c0 -8 -4
-15 -10 -15 -5 0 -7 7 -4 15 4 8 8 15 10 15 2 0 4 -7 4 -15z m130 5 c8 -5 11
-10 5 -10 -5 0 -17 5 -25 10 -8 5 -10 10 -5 10 6 0 17 -5 25 -10z m50 -10 c0
-5 -2 -10 -4 -10 -3 0 -8 5 -11 10 -3 6 -1 10 4 10 6 0 11 -4 11 -10z m-4715
-29 c-3 -6 -14 -11 -23 -11 -15 1 -15 2 2 15 21 16 32 13 21 -4z m4620 -11 c3
-5 2 -10 -4 -10 -5 0 -13 5 -16 10 -3 6 -2 10 4 10 5 0 13 -4 16 -10z m55 6
c0 -2 -7 -9 -15 -16 -13 -11 -14 -10 -9 4 5 14 24 23 24 12z m-255 -16 c3 -5
1 -10 -4 -10 -6 0 -11 5 -11 10 0 6 2 10 4 10 3 0 8 -4 11 -10z m125 0 c0 -6
6 -10 13 -9 25 3 34 -1 34 -17 0 -15 -1 -15 -13 0 -9 13 -13 14 -17 4 -3 -10
-8 -9 -23 3 -10 9 -25 14 -33 11 -8 -3 -11 0 -7 7 9 14 46 15 46 1z m-250 -45
c-6 -8 -8 -20 -4 -27 5 -10 4 -10 -6 -1 -7 7 -9 17 -4 25 5 7 7 22 6 33 -2 19
-2 19 9 2 8 -13 8 -22 -1 -32z m-4366 20 c-6 -16 -24 -21 -24 -7 0 11 11 22
21 22 5 0 6 -7 3 -15z m4546 -21 c0 -13 -4 -24 -10 -24 -5 0 -8 13 -7 29 2 35
17 31 17 -5z m-270 -4 c0 -5 -5 -10 -11 -10 -5 0 -7 5 -4 10 3 6 8 10 11 10 2
0 4 -4 4 -10z m161 -23 c-10 -9 -11 -8 -5 6 3 10 9 15 12 12 3 -3 0 -11 -7
-18z m47 5 c6 -18 -15 -14 -22 4 -4 10 -1 14 6 12 6 -2 14 -10 16 -16z m-168
-2 c13 -8 13 -10 -2 -10 -9 0 -20 5 -23 10 -8 13 5 13 25 0z m273 -4 c4 -10 1
-13 -9 -9 -15 6 -19 23 -5 23 5 0 11 -7 14 -14z m-1414 -16 c30 -15 43 -30 55
-62 29 -81 35 -119 27 -171 -5 -29 -7 -101 -5 -162 3 -138 -15 -253 -52 -333
-13 -28 -13 -36 -2 -49 12 -14 9 -15 -27 -9 -38 6 -39 6 -20 -9 16 -13 17 -17
6 -24 -20 -13 -43 -1 -36 17 3 8 -4 26 -17 39 -20 21 -24 39 -29 121 l-6 97
-1 -124 c-1 -68 -4 -122 -6 -120 -6 6 -15 126 -15 206 -1 57 -4 71 -15 67 -10
-4 -14 13 -15 82 -1 48 -4 91 -7 95 -2 4 0 10 5 13 9 6 20 -36 22 -83 1 -18 4
-12 10 17 9 46 -4 139 -22 157 -13 13 -31 -15 -20 -30 4 -5 11 -18 15 -29 5
-15 2 -14 -19 5 -13 13 -25 30 -25 37 0 6 -5 12 -12 12 -16 0 -48 30 -48 45 0
7 12 15 27 18 20 4 36 -2 59 -21 38 -32 51 -59 60 -127 6 -44 8 -47 16 -25 12
31 0 125 -21 172 -13 28 -20 35 -31 28 -22 -14 -40 -12 -40 5 0 11 7 14 23 10
15 -4 28 -1 36 9 11 13 9 18 -18 33 -30 17 -42 43 -20 43 5 0 7 -4 4 -10 -9
-14 0 -13 55 11 29 13 62 19 80 17 16 -3 30 -2 30 2 0 13 -25 30 -43 30 -10 0
-15 5 -12 10 8 13 10 13 54 -10z m1490 11 c8 -5 9 -11 3 -15 -5 -3 -15 1 -22
9 -14 16 -3 20 19 6z m-89 -35 c0 -2 -7 -7 -16 -10 -8 -3 -12 -2 -9 4 6 10 25
14 25 6z m65 -16 c3 -5 1 -10 -4 -10 -6 0 -11 5 -11 10 0 6 2 10 4 10 3 0 8
-4 11 -10z m-185 -8 c0 -4 -9 -8 -20 -9 -11 -1 -20 2 -20 8 0 5 9 9 20 9 11 0
20 -4 20 -8z m210 -22 c0 -24 -15 -27 -24 -4 -3 8 -2 12 4 9 6 -3 10 -1 10 4
0 6 2 11 5 11 3 0 5 -9 5 -20z m-80 1 c0 -6 -9 -9 -20 -8 -11 1 -20 5 -20 9 0
4 9 8 20 8 11 0 20 -4 20 -9z m-50 -15 c0 -3 -4 -8 -10 -11 -5 -3 -10 -1 -10
4 0 6 5 11 10 11 6 0 10 -2 10 -4z m-4490 -16 c0 -5 -7 -7 -15 -4 -8 4 -15 8
-15 10 0 2 7 4 15 4 8 0 15 -4 15 -10z m4150 -20 c0 -5 -5 -10 -11 -10 -5 0
-7 5 -4 10 3 6 8 10 11 10 2 0 4 -4 4 -10z m-4160 -50 c0 -5 -7 -7 -15 -4 -8
4 -15 8 -15 10 0 2 7 4 15 4 8 0 15 -4 15 -10z m-2099 -32 l23 -33 -27 24
c-15 14 -27 28 -27 33 0 15 8 8 31 -24z m6626 16 c-3 -3 -12 -4 -19 -1 -8 3
-5 6 6 6 11 1 17 -2 13 -5z m-1727 -14 c0 -5 17 -11 38 -11 26 -1 30 -3 12 -6
-34 -6 -83 -29 -135 -64 -23 -16 -48 -29 -55 -29 -6 0 -9 -4 -6 -9 13 -21
-338 -213 -564 -309 -193 -82 -531 -196 -568 -191 -23 3 -86 -9 -145 -28 -26
-8 -52 -13 -59 -11 -6 2 24 15 68 27 113 33 392 127 509 171 135 51 360 155
426 196 20 12 98 57 175 99 76 42 154 88 172 102 38 28 113 73 125 73 4 0 7
-4 7 -10z m142 -89 c22 -39 10 -49 -14 -11 -20 34 -22 40 -10 40 4 0 14 -13
24 -29z m15 -113 c-2 -13 -4 -3 -4 22 0 25 2 35 4 23 2 -13 2 -33 0 -45z
m-3087 35 c0 -8 -4 -12 -9 -9 -5 3 -11 -4 -14 -16 -4 -12 -9 -19 -13 -16 -3 4
-4 18 0 31 6 25 36 33 36 10z m3096 -175 c2 -57 5 -152 8 -213 3 -83 2 -104
-6 -85 -12 27 -23 419 -12 408 4 -4 8 -54 10 -110z m-3104 50 c-11 -23 -11
-23 -11 -1 -1 12 -4 30 -7 40 -6 17 -6 17 11 1 15 -14 16 -21 7 -40z m-39 -84
c-10 -7 -21 -14 -25 -14 -14 0 -4 25 12 31 24 10 33 -2 13 -17z m-46 -6 c-3
-8 -6 -5 -6 6 -1 11 2 17 5 13 3 -3 4 -12 1 -19z m-12 -28 c3 -5 -1 -10 -9
-10 -9 0 -16 5 -16 10 0 6 4 10 9 10 6 0 13 -4 16 -10z m3226 -137 c-10 -17
-10 -17 -11 2 0 11 4 31 8 45 l7 25 3 -27 c2 -15 -1 -35 -7 -45z m274 -33 c3
-6 -5 -10 -19 -10 -14 0 -28 -5 -31 -10 -4 -6 -11 -8 -16 -5 -17 11 -9 24 19
28 15 2 30 5 34 6 4 0 10 -3 13 -9z m1748 3 c-7 -2 -21 -2 -30 0 -10 3 -4 5
12 5 17 0 24 -2 18 -5z m-1590 -10 c-7 -2 -19 -2 -25 0 -7 3 -2 5 12 5 14 0
19 -2 13 -5z m-388 -50 c11 -2 36 -4 55 -4 29 0 31 -1 15 -9 -12 -5 85 -10
255 -11 l275 -3 -255 -7 c-140 -3 -273 -10 -296 -14 -35 -6 -44 -4 -67 18 -27
24 -38 55 -15 41 7 -5 22 -9 33 -11z m-3308 -28 c29 -4 56 -11 59 -17 5 -7 -3
-9 -22 -5 -16 4 -65 10 -109 13 -44 4 -87 10 -95 14 -15 8 73 5 167 -5z m4566
-2 c-13 -2 -33 -2 -45 0 -13 2 -3 4 22 4 25 0 35 -2 23 -4z m555 0 c-21 -2
-57 -2 -80 0 -24 2 -7 4 37 4 44 0 63 -2 43 -4z m-4473 -24 c-108 -18 -165
-22 -178 -11 -15 13 -40 11 -60 -6 -10 -9 -17 -10 -22 -2 -3 5 -15 10 -26 10
-10 0 -19 5 -19 10 0 6 65 10 178 9 132 -1 164 -4 127 -10z m3662 5 c-3 -3
-12 -4 -19 -1 -8 3 -5 6 6 6 11 1 17 -2 13 -5z m186 -1 c-29 -2 -77 -2 -105 0
-29 2 -6 3 52 3 58 0 81 -1 53 -3z m125 0 c-10 -2 -26 -2 -35 0 -10 3 -2 5 17
5 19 0 27 -2 18 -5z m-3223 -13 c-16 -4 -39 -8 -50 -8 -16 0 -15 2 5 8 14 4
36 8 50 8 22 0 22 -1 -5 -8z m-88 -16 c-3 -3 -12 -4 -19 -1 -8 3 -5 6 6 6 11
1 17 -2 13 -5z m-81 -13 c-3 -4 -34 -11 -68 -15 -35 -4 -103 -13 -153 -21 -99
-15 -395 -27 -395 -15 0 4 69 10 153 14 123 5 249 18 460 45 5 1 6 -3 3 -8z
m41 3 c-3 -3 -12 -4 -19 -1 -8 3 -5 6 6 6 11 1 17 -2 13 -5z m-579 -31 c-10
-2 -26 -2 -35 0 -10 3 -2 5 17 5 19 0 27 -2 18 -5z"/>
<path d="M5982 10590 c0 -14 2 -19 5 -12 2 6 2 18 0 25 -3 6 -5 1 -5 -13z"/>
<path d="M5760 10520 c0 -11 -4 -20 -10 -20 -6 0 -6 -9 0 -24 6 -17 5 -26 -4
-29 -8 -3 -11 -30 -10 -92 1 -47 5 -89 8 -92 3 -3 3 -17 0 -30 -4 -13 0 -30 7
-40 8 -9 9 -14 3 -10 -7 4 -14 -2 -16 -16 -7 -33 -2 -162 6 -175 4 -7 4 -12
-1 -12 -9 0 -11 -28 -12 -225 -2 -163 4 -231 18 -249 6 -7 8 -16 4 -19 -13
-14 -10 -87 5 -99 13 -11 14 -10 8 9 -4 12 -2 32 4 44 10 17 9 23 -1 30 -10 6
-10 9 -2 9 15 0 15 777 0 798 -6 8 -6 12 2 12 7 0 11 39 11 125 0 77 -4 125
-10 125 -5 0 -10 -9 -10 -20z"/>
<path d="M10663 10505 c-7 -8 -9 -16 -4 -19 5 -3 12 1 15 10 8 22 4 25 -11 9z"/>
<path d="M10620 10470 c0 -5 5 -10 10 -10 6 0 10 5 10 10 0 6 -4 10 -10 10 -5
0 -10 -4 -10 -10z"/>
<path d="M10601 10394 c0 -11 3 -14 6 -6 3 7 2 16 -1 19 -3 4 -6 -2 -5 -13z"/>
<path d="M10433 10185 c-17 -20 -19 -26 -8 -35 10 -8 15 -8 20 0 4 7 16 9 27
7 16 -5 19 -1 16 21 -4 34 -27 37 -55 7z"/>
<path d="M11040 9720 c-13 -8 -13 -10 2 -10 9 0 20 5 23 10 8 13 -5 13 -25 0z"/>
<path d="M11012 9396 c1 -13 6 -22 10 -20 11 7 10 32 -2 39 -6 3 -9 -4 -8 -19z"/>
<path d="M10950 9401 c0 -5 6 -11 13 -14 8 -3 14 1 14 9 0 8 -6 14 -14 14 -7
0 -13 -4 -13 -9z"/>
<path d="M11025 9360 c-3 -5 -1 -10 4 -10 6 0 11 5 11 10 0 6 -2 10 -4 10 -3
0 -8 -4 -11 -10z"/>
<path d="M10975 9350 c-3 -5 -1 -10 4 -10 6 0 11 5 11 10 0 6 -2 10 -4 10 -3
0 -8 -4 -11 -10z"/>
<path d="M5753 9328 c-2 -16 1 -18 10 -9 7 7 8 14 1 21 -6 6 -10 2 -11 -12z"/>
<path d="M10935 9320 c-16 -7 -17 -9 -3 -9 9 -1 20 4 23 9 7 11 7 11 -20 0z"/>
<path d="M10890 9309 c0 -5 5 -7 10 -4 6 3 10 8 10 11 0 2 -4 4 -10 4 -5 0
-10 -5 -10 -11z"/>
<path d="M5755 9260 c3 -5 8 -10 11 -10 2 0 4 5 4 10 0 6 -5 10 -11 10 -5 0
-7 -4 -4 -10z"/>
<path d="M11322 9200 c0 -14 2 -19 5 -12 2 6 2 18 0 25 -3 6 -5 1 -5 -13z"/>
<path d="M11320 9045 c0 -43 2 -76 5 -73 8 7 8 138 1 145 -3 4 -6 -29 -6 -72z"/>
<path d="M5735 9071 c1 -21 6 -44 10 -51 6 -9 4 -12 -6 -8 -11 4 -14 -13 -16
-93 -1 -58 2 -99 7 -99 6 0 10 -10 10 -22 0 -17 -3 -19 -9 -10 -13 22 -20 -7
-14 -64 2 -27 5 -57 4 -66 0 -10 8 -18 17 -19 11 0 12 -3 5 -6 -7 -2 -13 -15
-13 -28 0 -13 -6 -26 -12 -28 -9 -4 -8 -6 2 -6 13 -1 13 -2 0 -11 -10 -6 -11
-10 -2 -10 6 0 12 -6 12 -14 0 -17 31 -30 39 -17 5 7 5 468 0 574 0 9 -8 17
-18 17 -15 0 -18 -7 -16 -39z"/>
<path d="M10920 9060 c0 -5 -6 -10 -13 -10 -15 0 -44 -47 -34 -56 10 -10 27 6
27 27 0 11 5 17 10 14 6 -3 10 -1 10 4 0 6 7 11 16 11 8 0 12 5 9 10 -3 6 -10
10 -16 10 -5 0 -9 -4 -9 -10z"/>
<path d="M10840 8970 c0 -5 5 -10 10 -10 6 0 10 5 10 10 0 6 -4 10 -10 10 -5
0 -10 -4 -10 -10z"/>
<path d="M10930 8911 c0 -6 5 -13 10 -16 6 -3 10 1 10 9 0 9 -4 16 -10 16 -5
0 -10 -4 -10 -9z"/>
<path d="M10915 8850 c4 -6 11 -8 16 -5 14 9 11 15 -7 15 -8 0 -12 -5 -9 -10z"/>
<path d="M11442 8840 c0 -14 2 -19 5 -12 2 6 2 18 0 25 -3 6 -5 1 -5 -13z"/>
<path d="M10866 8803 c-11 -11 -6 -23 9 -23 8 0 15 4 15 9 0 13 -16 22 -24 14z"/>
<path d="M10894 8780 c-23 -37 -33 -60 -22 -54 7 5 9 2 5 -9 -5 -13 -1 -16 16
-14 12 1 25 6 29 11 11 16 -3 35 -20 28 -15 -5 -15 -3 -4 11 8 9 12 22 10 29
-3 9 -7 8 -14 -2z"/>
<path d="M5852 8731 c-1 -22 3 -43 8 -46 6 -4 10 12 10 39 0 56 -16 62 -18 7z"/>
<path d="M10911 8663 c-7 -8 -11 -16 -8 -19 2 -2 10 2 17 11 17 20 9 27 -9 8z"/>
<path d="M5716 8502 c6 -4 12 -38 13 -77 5 -159 8 -201 19 -227 6 -16 7 -28 2
-28 -5 0 -8 -9 -7 -20 1 -11 4 -20 8 -20 4 0 6 -15 5 -32 -1 -18 6 -56 17 -85
10 -29 19 -83 21 -120 3 -59 30 -186 68 -318 28 -95 107 -242 161 -299 28 -30
51 -29 26 1 -46 56 -137 288 -165 424 -8 40 -20 81 -27 93 -20 36 -35 87 -42
140 -4 28 -8 62 -10 76 -4 24 -6 54 -25 344 -6 97 -12 141 -22 147 -16 11 -58
12 -42 1z"/>
<path d="M3942 8425 c0 -16 2 -22 5 -12 2 9 2 23 0 30 -3 6 -5 -1 -5 -18z"/>
<path d="M3929 8333 c-2 -72 -2 -119 2 -208 l2 -70 7 65 c12 101 11 270 0 270
-5 0 -11 -26 -11 -57z"/>
<path d="M10745 8260 c-4 -11 -11 -18 -16 -15 -5 4 -9 -2 -9 -12 1 -16 3 -15
20 6 11 13 20 27 20 32 0 16 -8 10 -15 -11z"/>
<path d="M3882 8220 c0 -19 2 -27 5 -17 2 9 2 25 0 35 -3 9 -5 1 -5 -18z"/>
<path d="M9646 8188 c3 -5 10 -6 15 -3 13 9 11 12 -6 12 -8 0 -12 -4 -9 -9z"/>
<path d="M3878 8094 c-1 -36 0 -68 3 -70 3 -2 7 28 8 66 3 89 -6 92 -11 4z"/>
<path d="M10770 8082 c0 -7 -7 -12 -16 -12 -8 0 -12 -4 -9 -10 6 -9 -8 -14
-28 -11 -4 1 -3 -8 3 -20 7 -12 17 -18 27 -15 8 3 18 6 21 6 4 0 0 4 -8 10
-12 7 -12 12 5 29 10 12 15 24 12 28 -4 3 -7 1 -7 -5z"/>
<path d="M10915 7960 c3 -5 13 -10 21 -10 8 0 12 5 9 10 -3 6 -13 10 -21 10
-8 0 -12 -4 -9 -10z"/>
<path d="M10826 7864 c-5 -14 -4 -15 9 -4 17 14 19 20 6 20 -5 0 -12 -7 -15
-16z"/>
<path d="M10896 7784 c-3 -8 -2 -12 3 -9 6 3 14 -3 20 -12 10 -17 10 -17 11 0
0 9 6 17 13 18 6 0 3 4 -8 9 -29 12 -32 12 -39 -6z"/>
<path d="M3927 7512 c-7 -175 2 -346 14 -277 10 51 9 372 0 405 -4 15 -10 -39
-14 -128z"/>
<path d="M10990 7650 c0 -5 5 -10 10 -10 6 0 10 5 10 10 0 6 -4 10 -10 10 -5
0 -10 -4 -10 -10z"/>
<path d="M11120 7557 c0 -18 5 -39 11 -47 7 -11 8 -6 4 19 -5 22 -3 36 5 41 8
5 7 9 -4 13 -13 5 -16 -1 -16 -26z"/>
<path d="M11058 7573 c7 -3 16 -2 19 1 4 3 -2 6 -13 5 -11 0 -14 -3 -6 -6z"/>
<path d="M11003 7563 c-18 -7 -16 -23 2 -23 8 0 15 7 15 15 0 8 -1 15 -2 14
-2 0 -9 -3 -15 -6z"/>
<path d="M3867 7478 c-30 -375 39 -790 188 -1142 9 -21 18 -36 21 -34 2 3 -20
76 -50 164 -30 87 -57 182 -61 209 -4 28 -15 88 -26 135 -16 76 -27 196 -44
475 -2 44 -7 123 -10 175 -3 52 -7 96 -9 97 -2 2 -6 -34 -9 -79z"/>
<path d="M11200 7515 c0 -8 4 -15 10 -15 5 0 7 7 4 15 -4 8 -8 15 -10 15 -2 0
-4 -7 -4 -15z"/>
<path d="M10989 7511 c12 -8 51 -4 51 5 0 2 -15 4 -32 4 -23 0 -29 -3 -19 -9z"/>
<path d="M11177 7497 c-11 -29 -9 -43 4 -30 6 6 9 19 7 29 -3 18 -4 18 -11 1z"/>
<path d="M11136 7458 c1 -13 3 -29 3 -36 1 -13 50 -36 58 -28 3 3 -2 15 -11
28 -9 12 -16 17 -16 10 0 -10 -3 -10 -13 0 -8 7 -12 20 -9 30 2 10 0 18 -5 18
-5 0 -9 -10 -7 -22z"/>
<path d="M11011 7444 c0 -11 3 -14 6 -6 3 7 2 16 -1 19 -3 4 -6 -2 -5 -13z"/>
<path d="M3771 7424 c0 -11 3 -14 6 -6 3 7 2 16 -1 19 -3 4 -6 -2 -5 -13z"/>
<path d="M10910 7429 c0 -5 5 -7 10 -4 6 3 10 8 10 11 0 2 -4 4 -10 4 -5 0
-10 -5 -10 -11z"/>
<path d="M10908 7403 c7 -3 16 -2 19 1 4 3 -2 6 -13 5 -11 0 -14 -3 -6 -6z"/>
<path d="M10724 7284 c3 -9 6 -20 6 -25 0 -6 5 -7 10 -4 16 10 12 45 -6 45
-11 0 -14 -5 -10 -16z"/>
<path d="M10889 7261 c7 -5 10 -14 7 -20 -4 -6 -2 -11 3 -11 6 0 11 9 11 20 0
12 -7 20 -17 20 -14 0 -15 -2 -4 -9z"/>
<path d="M10848 7233 c7 -3 16 -2 19 1 4 3 -2 6 -13 5 -11 0 -14 -3 -6 -6z"/>
<path d="M10670 7210 c0 -5 5 -10 10 -10 6 0 10 5 10 10 0 6 -4 10 -10 10 -5
0 -10 -4 -10 -10z"/>
<path d="M10747 7203 c3 -7 9 -13 13 -13 4 0 10 6 13 13 3 7 -3 13 -13 13 -10
0 -16 -6 -13 -13z"/>
<path d="M10675 7180 c3 -5 8 -10 11 -10 2 0 4 5 4 10 0 6 -5 10 -11 10 -5 0
-7 -4 -4 -10z"/>
<path d="M10784 7168 c-10 -16 2 -18 21 -5 16 12 16 14 1 14 -9 0 -19 -4 -22
-9z"/>
<path d="M10858 7173 c7 -3 16 -2 19 1 4 3 -2 6 -13 5 -11 0 -14 -3 -6 -6z"/>
<path d="M10695 7131 c-3 -5 -2 -12 3 -15 5 -3 9 1 9 9 0 17 -3 19 -12 6z"/>
<path d="M11390 7106 c0 -31 6 -34 13 -6 3 11 1 23 -4 26 -5 3 -9 -6 -9 -20z"/>
<path d="M10725 7090 c-3 -5 -1 -10 4 -10 6 0 11 5 11 10 0 6 -2 10 -4 10 -3
0 -8 -4 -11 -10z"/>
<path d="M10840 7091 c0 -7 -5 -9 -12 -5 -7 5 -8 3 -3 -5 5 -9 10 -10 18 -2 6
6 8 14 4 18 -4 3 -7 1 -7 -6z"/>
<path d="M11040 7070 c0 -5 5 -10 10 -10 6 0 10 5 10 10 0 6 -4 10 -10 10 -5
0 -10 -4 -10 -10z"/>
<path d="M10816 7047 c3 -10 9 -15 12 -12 3 3 0 11 -7 18 -10 9 -11 8 -5 -6z"/>
<path d="M10887 7027 c-4 -10 -12 -17 -19 -16 -7 1 -21 -1 -32 -6 -11 -5 -21
-3 -26 5 -5 8 -10 8 -14 2 -5 -9 5 -15 69 -37 16 -6 17 -5 5 4 -13 9 -12 11 3
11 10 0 16 4 13 9 -4 5 -1 11 5 13 7 2 10 10 7 18 -3 11 -6 10 -11 -3z"/>
<path d="M10971 7024 c0 -11 3 -14 6 -6 3 7 2 16 -1 19 -3 4 -6 -2 -5 -13z"/>
<path d="M11065 7009 c-4 -6 -5 -12 -2 -15 2 -3 7 2 10 11 7 17 1 20 -8 4z"/>
<path d="M11141 6992 c7 -10 18 -19 25 -19 11 0 10 5 -3 19 -9 10 -20 18 -25
18 -4 0 -3 -8 3 -18z"/>
<path d="M11392 6955 c0 -16 2 -22 5 -12 2 9 2 23 0 30 -3 6 -5 -1 -5 -18z"/>
<path d="M10784 6955 c8 -8 24 -15 36 -15 11 0 20 -6 19 -12 -3 -28 2 -35 24
-34 15 1 22 -4 21 -16 -1 -10 2 -15 7 -12 5 3 9 11 9 19 0 7 8 16 18 18 15 4
15 5 0 6 -11 1 -15 8 -12 24 l5 22 -10 -22 c-14 -30 -39 -29 -53 2 -6 14 -17
24 -24 21 -8 -3 -16 -1 -19 4 -4 6 -13 10 -21 10 -14 0 -14 -2 0 -15z"/>
<path d="M11080 6924 c0 -16 36 -33 51 -23 11 7 9 9 -6 9 -12 0 -26 5 -33 12
-7 7 -12 8 -12 2z"/>
<path d="M10965 6900 c3 -5 8 -10 11 -10 2 0 4 5 4 10 0 6 -5 10 -11 10 -5 0
-7 -4 -4 -10z"/>
<path d="M11056 6889 c2 -4 0 -10 -6 -14 -15 -9 -12 -42 5 -49 17 -6 20 5 5
20 -8 8 -6 15 5 24 19 16 19 27 0 27 -8 0 -12 -4 -9 -8z"/>
<path d="M10796 6857 c3 -10 9 -15 12 -12 3 3 0 11 -7 18 -10 9 -11 8 -5 -6z"/>
<path d="M10825 6851 c-3 -5 -1 -12 5 -16 5 -3 10 -1 10 5 0 6 5 8 10 5 6 -3
10 -15 10 -26 0 -10 5 -19 10 -19 15 0 12 27 -6 44 -18 18 -30 20 -39 7z"/>
<path d="M6537 6833 c-10 -9 -9 -33 1 -33 4 0 8 9 8 20 0 23 0 22 -9 13z"/>
<path d="M10978 6833 c-22 -6 -12 -33 13 -33 12 0 19 7 19 20 0 20 -2 21 -32
13z"/>
<path d="M11127 6800 c-3 -12 0 -20 8 -20 7 0 15 9 18 20 3 12 0 20 -8 20 -7
0 -15 -9 -18 -20z"/>
<path d="M10795 6799 c-4 -6 -14 -8 -22 -5 -12 5 -14 1 -10 -14 3 -11 0 -20
-6 -20 -6 0 -8 -2 -5 -5 10 -11 54 21 50 35 -4 11 -1 11 11 -2 23 -23 22 -41
-3 -33 -11 4 -20 2 -20 -4 0 -6 6 -11 14 -11 8 0 17 -6 19 -12 3 -8 6 -6 6 5
1 9 5 17 10 17 12 0 1 43 -13 52 -15 11 -24 10 -31 -3z"/>
<path d="M10900 6801 c0 -5 -3 -18 -6 -28 -5 -17 -5 -17 6 0 6 9 18 17 25 17
8 0 15 5 15 10 0 6 -9 10 -20 10 -11 0 -20 -4 -20 -9z"/>
<path d="M11014 6799 c-3 -6 0 -18 8 -26 14 -13 16 -12 20 11 5 27 -14 37 -28
15z"/>
<path d="M10976 6775 c4 -8 11 -15 16 -15 6 0 5 6 -2 15 -7 8 -14 15 -16 15
-2 0 -1 -7 2 -15z"/>
<path d="M10698 6749 c16 -17 15 -29 -3 -29 -17 0 -20 -16 -6 -25 5 -3 16 3
23 12 18 25 40 28 36 6 -2 -10 -11 -17 -21 -17 -22 2 -21 -14 2 -49 11 -18 21
-25 25 -18 4 6 4 11 0 11 -3 0 -1 7 6 15 7 9 10 19 6 22 -4 4 -11 1 -16 -7 -6
-8 -10 -10 -10 -4 0 6 7 17 15 24 16 13 21 55 6 45 -5 -3 -15 0 -23 7 -7 7
-22 15 -33 16 -16 3 -18 1 -7 -9z"/>
<path d="M10875 6730 c3 -5 8 -10 11 -10 2 0 4 5 4 10 0 6 -5 10 -11 10 -5 0
-7 -4 -4 -10z"/>
<path d="M10947 6663 c-9 -2 -15 -9 -12 -14 9 -14 22 -11 29 6 3 8 4 14 3 14
-1 -1 -10 -3 -20 -6z"/>
<path d="M10986 6645 c-4 -11 2 -15 19 -15 30 0 32 6 6 19 -14 8 -20 7 -25 -4z"/>
<path d="M10980 6594 c0 -14 4 -23 9 -19 11 6 10 45 -1 45 -4 0 -8 -12 -8 -26z"/>
<path d="M6386 6582 c-3 -5 1 -9 9 -9 8 0 15 4 15 9 0 4 -4 8 -9 8 -6 0 -12
-4 -15 -8z"/>
<path d="M6410 6565 c-10 -12 -10 -15 4 -15 9 0 16 7 16 15 0 8 -2 15 -4 15
-2 0 -9 -7 -16 -15z"/>
<path d="M10871 6551 c-8 -6 -9 -11 -3 -15 6 -3 14 -1 17 5 9 14 2 20 -14 10z"/>
<path d="M10924 6549 c-3 -6 -1 -16 5 -22 7 -7 12 -6 16 6 4 9 13 13 22 10 11
-4 14 -2 9 5 -9 15 -43 16 -52 1z"/>
<path d="M11040 6515 c-10 -12 -10 -15 2 -15 8 0 15 7 15 15 0 8 -1 15 -2 15
-2 0 -8 -7 -15 -15z"/>
<path d="M10871 6504 c0 -11 3 -14 6 -6 3 7 2 16 -1 19 -3 4 -6 -2 -5 -13z"/>
<path d="M10981 6498 c-13 -21 -13 -22 3 -9 15 13 19 13 27 0 8 -11 9 -10 7 5
-4 28 -21 29 -37 4z"/>
<path d="M10823 6493 c-7 -2 -13 -9 -13 -14 0 -6 4 -8 8 -5 5 3 19 -4 31 -15
17 -16 19 -24 11 -39 -8 -16 -8 -18 5 -14 18 7 21 -12 3 -20 -9 -4 -8 -5 2 -5
36 3 61 -2 56 -9 -3 -5 1 -9 9 -9 9 0 14 7 13 16 -4 22 -36 44 -53 37 -8 -3
-17 -1 -20 4 -4 6 -2 10 3 10 5 0 8 10 7 23 -1 14 -8 21 -19 19 -9 -2 -15 2
-14 9 3 13 -11 20 -29 12z"/>
<path d="M11030 6479 c0 -5 5 -7 10 -4 6 3 10 8 10 11 0 2 -4 4 -10 4 -5 0
-10 -5 -10 -11z"/>
<path d="M10912 6468 c-7 -7 -12 -17 -12 -22 0 -6 5 -3 11 7 6 9 15 14 21 11
7 -4 8 -2 4 4 -9 15 -9 15 -24 0z"/>
<path d="M6371 6454 c0 -11 3 -14 6 -6 3 7 2 16 -1 19 -3 4 -6 -2 -5 -13z"/>
<path d="M11047 6453 c-12 -12 -7 -22 8 -17 8 4 15 10 15 15 0 11 -14 12 -23
2z"/>
<path d="M10980 6446 c0 -2 9 -6 20 -9 11 -3 20 -1 20 4 0 5 -9 9 -20 9 -11 0
-20 -2 -20 -4z"/>
<path d="M10830 6425 c0 -9 -9 -15 -22 -15 -22 0 -20 -10 4 -14 7 -1 20 -6 28
-11 13 -7 13 -6 2 7 -9 11 -10 18 -2 23 13 8 13 25 0 25 -5 0 -10 -7 -10 -15z"/>
<path d="M11120 6425 c7 -9 15 -13 17 -11 7 7 -7 26 -19 26 -6 0 -6 -6 2 -15z"/>
<path d="M11021 6403 c0 -11 3 -13 6 -5 2 6 10 9 16 5 17 -10 56 -13 61 -4 3
4 0 8 -7 9 -7 0 -27 4 -44 7 -28 5 -33 3 -32 -12z"/>
<path d="M11055 6380 c-4 -6 -11 -8 -16 -5 -5 3 -6 -1 -3 -9 3 -9 10 -16 16
-16 5 0 7 4 3 9 -3 5 3 11 12 13 12 2 14 6 6 11 -6 4 -14 3 -18 -3z"/>
<path d="M4080 6281 c0 -6 4 -13 10 -16 6 -3 7 1 4 9 -7 18 -14 21 -14 7z"/>
<path d="M4110 6219 c0 -9 7 -22 15 -29 19 -16 19 0 0 26 -12 16 -14 16 -15 3z"/>
<path d="M6280 6191 c0 -6 4 -12 8 -15 5 -3 9 1 9 9 0 8 -4 15 -9 15 -4 0 -8
-4 -8 -9z"/>
<path d="M4150 6148 c-1 -25 137 -229 205 -303 l36 -40 -33 48 c-18 27 -66 97
-106 155 -91 135 -101 149 -102 140z"/>
<path d="M6210 6037 c0 -8 6 -14 14 -14 8 0 12 6 9 14 -3 7 -9 13 -14 13 -5 0
-9 -6 -9 -13z"/>
<path d="M6176 5997 c3 -10 9 -15 12 -12 3 3 0 11 -7 18 -10 9 -11 8 -5 -6z"/>
<path d="M6200 5942 c0 -7 -4 -10 -10 -7 -5 3 -10 2 -10 -4 0 -20 17 -20 38 0
27 25 27 28 2 26 -11 -1 -20 -7 -20 -15z"/>
<path d="M6197 5863 c3 -7 9 -10 14 -7 14 8 11 21 -5 21 -8 0 -12 -6 -9 -14z"/>
<path d="M6185 5820 c-3 -5 -1 -10 4 -10 6 0 11 5 11 10 0 6 -2 10 -4 10 -3 0
-8 -4 -11 -10z"/>
<path d="M6222 5800 c-7 -11 -8 -20 -3 -20 9 0 24 30 18 36 -1 2 -8 -6 -15
-16z"/>
<path d="M4415 5780 c10 -11 20 -20 23 -20 3 0 -3 9 -13 20 -10 11 -20 20 -23
20 -3 0 3 -9 13 -20z"/>
<path d="M4530 5723 c0 -5 13 -17 28 -27 l27 -19 -24 26 c-26 28 -31 32 -31
20z"/>
<path d="M4580 5597 c0 -17 311 -217 336 -217 5 0 -31 24 -81 53 -49 29 -121
76 -160 103 -81 58 -95 67 -95 61z"/>
<path d="M6120 5581 c0 -6 4 -13 10 -16 6 -3 7 1 4 9 -7 18 -14 21 -14 7z"/>
<path d="M6107 5529 c7 -7 15 -10 18 -7 3 3 -2 9 -12 12 -14 6 -15 5 -6 -5z"/>
<path d="M6065 5500 c-3 -5 -1 -10 4 -10 6 0 11 5 11 10 0 6 -2 10 -4 10 -3 0
-8 -4 -11 -10z"/>
<path d="M6103 5496 c-3 -6 -3 -8 2 -4 4 4 14 3 22 -3 10 -9 13 -8 13 3 0 17
-28 20 -37 4z"/>
<path d="M6035 5431 c-3 -5 -1 -12 5 -16 5 -3 10 1 10 9 0 18 -6 21 -15 7z"/>
<path d="M4955 5364 c37 -21 147 -65 152 -60 2 2 -32 18 -74 35 -102 42 -114
46 -78 25z"/>
<path d="M5175 5274 c32 -13 63 -23 69 -21 10 3 -104 47 -120 47 -5 -1 18 -12
51 -26z"/>
<path d="M5504 5258 c-10 -16 18 -38 47 -38 32 0 37 11 13 31 -19 15 -53 19
-60 7z"/>
<path d="M5415 5140 c11 -5 29 -8 40 -8 16 0 15 2 -5 8 -34 11 -60 11 -35 0z"/>
<path d="M5488 5123 c6 -2 18 -2 25 0 6 3 1 5 -13 5 -14 0 -19 -2 -12 -5z"/>
<path d="M5538 5113 c7 -3 16 -2 19 1 4 3 -2 6 -13 5 -11 0 -14 -3 -6 -6z"/>
<path d="M5588 5103 c7 -3 16 -2 19 1 4 3 -2 6 -13 5 -11 0 -14 -3 -6 -6z"/>
<path d="M10387 7275 c4 -16 6 -35 6 -42 0 -17 12 -16 27 2 9 10 9 15 1 15 -6
0 -11 12 -11 28 0 19 -3 23 -9 13 -7 -11 -9 -11 -14 0 -4 8 -3 1 0 -16z"/>
<path d="M10341 7144 c0 -11 3 -14 6 -6 3 7 2 16 -1 19 -3 4 -6 -2 -5 -13z"/>
<path d="M9380 5910 c0 -5 6 -10 13 -12 6 -3 13 -16 13 -29 1 -13 9 -57 18
-97 9 -40 16 -95 16 -122 0 -27 3 -51 8 -54 4 -2 4 -42 1 -88 -11 -126 -10
-266 1 -273 6 -4 10 21 11 67 0 40 4 163 8 273 7 213 1 277 -31 312 -21 22
-58 37 -58 23z"/>
<path d="M9511 5613 c-1 -6 -4 -20 -7 -30 -5 -17 -5 -17 6 0 6 10 9 23 6 30
-3 9 -5 9 -5 0z"/>
<path d="M9332 5520 c0 -14 2 -19 5 -12 2 6 2 18 0 25 -3 6 -5 1 -5 -13z"/>
</g>
</svg>
